<?xml version="1.0" encoding="UTF-8"?>
<svg id="Layer_2" data-name="Layer 2" xmlns="http://www.w3.org/2000/svg" viewBox="0 0 1001 1001">
  <defs>
    <style>
      .cls-1, .cls-2 {
        stroke: #000;
        stroke-miterlimit: 10;
      }

      .cls-1, .cls-3 {
        fill: #0076b8;
      }

      .cls-2 {
        fill: none;
      }

      .cls-3 {
        stroke-width: 0px;
      }
    </style>
  </defs>
  <g id="Layer_1-2" data-name="Layer 1">
    <rect class="cls-1" x=".5" y=".9" width="1000" height="999.6"/>
    <g>
      <line class="cls-2" x1=".5" y1=".55" x2=".5" y2="1000.55"/>
      <line class="cls-2" x1="50.5" y1=".55" x2="50.5" y2="1000.55"/>
      <line class="cls-2" x1="100.5" y1=".55" x2="100.5" y2="1000.55"/>
      <line class="cls-2" x1="150.5" y1=".55" x2="150.5" y2="1000.55"/>
      <line class="cls-2" x1="200.5" y1=".55" x2="200.5" y2="1000.55"/>
      <line class="cls-2" x1="250.5" y1=".55" x2="250.5" y2="1000.55"/>
      <line class="cls-2" x1="300.5" y1=".55" x2="300.5" y2="1000.55"/>
      <line class="cls-2" x1="350.5" y1=".55" x2="350.5" y2="1000.55"/>
      <line class="cls-2" x1="400.5" y1=".55" x2="400.5" y2="1000.55"/>
      <line class="cls-2" x1="450.5" y1=".55" x2="450.5" y2="1000.55"/>
      <line class="cls-2" x1="500.5" y1=".55" x2="500.5" y2="1000.55"/>
      <line class="cls-2" x1="550.5" y1=".55" x2="550.5" y2="1000.55"/>
      <line class="cls-2" x1="600.5" y1=".55" x2="600.5" y2="1000.55"/>
      <line class="cls-2" x1="650.5" y1=".55" x2="650.5" y2="1000.55"/>
      <line class="cls-2" x1="700.5" y1=".55" x2="700.5" y2="1000.55"/>
      <line class="cls-2" x1="750.5" y1=".55" x2="750.5" y2="1000.55"/>
      <line class="cls-2" x1="800.5" y1=".55" x2="800.5" y2="1000.55"/>
      <line class="cls-2" x1="850.5" y1=".55" x2="850.5" y2="1000.55"/>
      <line class="cls-2" x1="900.5" y1=".55" x2="900.5" y2="1000.55"/>
      <line class="cls-2" x1="950.5" y1=".55" x2="950.5" y2="1000.55"/>
      <line class="cls-2" x1="1000.5" y1=".55" x2="1000.5" y2="1000.55"/>
    </g>
    <g>
      <g>
        <line class="cls-2" x1=".5" y1="1000.5" x2="1000.5" y2="1000.5"/>
        <line class="cls-3" x1=".5" y1="1000.5" x2="1000.5" y2="1000.5"/>
      </g>
      <g>
        <line class="cls-2" x1=".5" y1="950.5" x2="1000.5" y2="950.5"/>
        <line class="cls-3" x1=".5" y1="950.5" x2="1000.5" y2="950.5"/>
      </g>
      <g>
        <line class="cls-2" x1=".5" y1="900.5" x2="1000.5" y2="900.5"/>
        <line class="cls-3" x1=".5" y1="900.5" x2="1000.5" y2="900.5"/>
      </g>
      <g>
        <line class="cls-2" x1=".5" y1="850.5" x2="1000.5" y2="850.5"/>
        <line class="cls-3" x1=".5" y1="850.5" x2="1000.5" y2="850.5"/>
      </g>
      <g>
        <line class="cls-2" x1=".5" y1="800.5" x2="1000.5" y2="800.5"/>
        <line class="cls-3" x1=".5" y1="800.5" x2="1000.5" y2="800.5"/>
      </g>
      <g>
        <line class="cls-2" x1=".5" y1="750.5" x2="1000.5" y2="750.5"/>
        <line class="cls-3" x1=".5" y1="750.5" x2="1000.5" y2="750.5"/>
      </g>
      <g>
        <line class="cls-2" x1=".5" y1="700.5" x2="1000.5" y2="700.5"/>
        <line class="cls-3" x1=".5" y1="700.5" x2="1000.5" y2="700.5"/>
      </g>
      <g>
        <line class="cls-2" x1=".5" y1="650.5" x2="1000.5" y2="650.5"/>
        <line class="cls-3" x1=".5" y1="650.5" x2="1000.5" y2="650.5"/>
      </g>
      <g>
        <line class="cls-2" x1=".5" y1="600.5" x2="1000.5" y2="600.5"/>
        <line class="cls-3" x1=".5" y1="600.5" x2="1000.5" y2="600.5"/>
      </g>
      <g>
        <line class="cls-2" x1=".5" y1="550.5" x2="1000.5" y2="550.5"/>
        <line class="cls-3" x1=".5" y1="550.5" x2="1000.5" y2="550.5"/>
      </g>
      <g>
        <line class="cls-2" x1=".5" y1="500.5" x2="1000.5" y2="500.5"/>
        <line class="cls-3" x1=".5" y1="500.5" x2="1000.5" y2="500.5"/>
      </g>
      <g>
        <line class="cls-2" x1=".5" y1="450.5" x2="1000.5" y2="450.5"/>
        <line class="cls-3" x1=".5" y1="450.5" x2="1000.5" y2="450.5"/>
      </g>
      <g>
        <line class="cls-2" x1=".5" y1="400.5" x2="1000.5" y2="400.5"/>
        <line class="cls-3" x1=".5" y1="400.5" x2="1000.5" y2="400.5"/>
      </g>
      <g>
        <line class="cls-2" x1=".5" y1="350.5" x2="1000.5" y2="350.5"/>
        <line class="cls-3" x1=".5" y1="350.5" x2="1000.5" y2="350.5"/>
      </g>
      <g>
        <line class="cls-2" x1=".5" y1="300.5" x2="1000.5" y2="300.5"/>
        <line class="cls-3" x1=".5" y1="300.5" x2="1000.5" y2="300.5"/>
      </g>
      <g>
        <line class="cls-2" x1=".5" y1="250.5" x2="1000.5" y2="250.5"/>
        <line class="cls-3" x1=".5" y1="250.5" x2="1000.5" y2="250.5"/>
      </g>
      <g>
        <line class="cls-2" x1=".5" y1="200.5" x2="1000.5" y2="200.5"/>
        <line class="cls-3" x1=".5" y1="200.5" x2="1000.5" y2="200.5"/>
      </g>
      <g>
        <line class="cls-2" x1=".5" y1="150.5" x2="1000.5" y2="150.5"/>
        <line class="cls-3" x1=".5" y1="150.5" x2="1000.5" y2="150.5"/>
      </g>
      <g>
        <line class="cls-2" x1=".5" y1="100.5" x2="1000.5" y2="100.5"/>
        <line class="cls-3" x1=".5" y1="100.5" x2="1000.5" y2="100.5"/>
      </g>
      <g>
        <line class="cls-2" x1=".5" y1="50.5" x2="1000.5" y2="50.5"/>
        <line class="cls-3" x1=".5" y1="50.5" x2="1000.5" y2="50.5"/>
      </g>
      <g>
        <line class="cls-2" x1=".5" y1=".5" x2="1000.5" y2=".5"/>
        <line class="cls-3" x1=".5" y1=".5" x2="1000.5" y2=".5"/>
      </g>
    </g>
  </g>
</svg>