<?xml version="1.0" encoding="UTF-8" standalone="no"?>
<!-- Created with Inkscape (http://www.inkscape.org/) -->

<svg
   version="1.1"
   id="svg2"
   width="576"
   height="288"
   viewBox="0 0 576 288"
   sodipodi:docname="UDL4CS Logo.ai"
   xmlns:inkscape="http://www.inkscape.org/namespaces/inkscape"
   xmlns:sodipodi="http://sodipodi.sourceforge.net/DTD/sodipodi-0.dtd"
   xmlns="http://www.w3.org/2000/svg"
   xmlns:svg="http://www.w3.org/2000/svg">
  <defs
     id="defs6">
    <linearGradient
       x1="0"
       y1="0"
       x2="1"
       y2="0"
       gradientUnits="userSpaceOnUse"
       gradientTransform="matrix(154.37758,0,0,-154.37758,144.05397,187.97006)"
       spreadMethod="pad"
       id="linearGradient30">
      <stop
         style="stop-opacity:1;stop-color:#cc2952"
         offset="0"
         id="stop22" />
      <stop
         style="stop-opacity:1;stop-color:#151b71"
         offset="0.5"
         id="stop24" />
      <stop
         style="stop-opacity:1;stop-color:#0b1a73"
         offset="0.580832"
         id="stop26" />
      <stop
         style="stop-opacity:1;stop-color:#007acc"
         offset="1"
         id="stop28" />
    </linearGradient>
    <clipPath
       clipPathUnits="userSpaceOnUse"
       id="clipPath40">
      <path
         d="M 0,216 H 432 V 0 H 0 Z"
         id="path38" />
    </clipPath>
    <clipPath
       clipPathUnits="userSpaceOnUse"
       id="clipPath50">
      <path
         d="m 141.43,199.867 v -2.61 -0.014 -2.609 h 2.624 v 2.609 0.014 2.61 z m -7.862,-7.846 h 2.623 v 2.623 h -2.623 z m 7.862,-2.622 h 2.624 v 2.623 h -2.624 z m -5.238,-0.011 h 2.624 v 2.624 h -2.624 z m 2.616,-5.246 h 2.623 v 2.623 h -2.623 z m 2.622,-2.624 h 2.624 v 2.624 h -2.624 z m -5.238,-0.021 h 2.624 v 2.623 h -2.624 z m 5.238,-5.225 h 2.624 v 2.623 h -2.624 z"
         id="path48" />
    </clipPath>
    <clipPath
       clipPathUnits="userSpaceOnUse"
       id="clipPath60">
      <path
         d="M 0,216 H 432 V 0 H 0 Z"
         id="path58" />
    </clipPath>
    <clipPath
       clipPathUnits="userSpaceOnUse"
       id="clipPath246">
      <path
         d="m 36.104,92.305 v -2.608 -0.015 -2.609 h 2.624 v 2.609 0.015 2.608 z M 28.242,84.46 h 2.624 v 2.623 h -2.624 z m 7.862,-2.623 h 2.624 v 2.624 h -2.624 z m -5.239,-0.01 h 2.623 v 2.624 h -2.623 z m 2.617,-5.246 h 2.623 v 2.624 h -2.623 z m 2.622,-2.623 h 2.624 v 2.624 h -2.624 z m -5.239,-0.022 h 2.623 v 2.623 h -2.623 z m 5.239,-5.225 h 2.624 v 2.624 h -2.624 z"
         id="path244" />
    </clipPath>
    <clipPath
       clipPathUnits="userSpaceOnUse"
       id="clipPath256">
      <path
         d="M 0,216 H 432 V 0 H 0 Z"
         id="path254" />
    </clipPath>
    <clipPath
       clipPathUnits="userSpaceOnUse"
       id="clipPath438">
      <path
         d="m 252.442,92.305 v -2.608 -0.015 -2.609 h 2.622 v 2.609 0.015 2.608 z m -7.863,-7.845 h 2.624 v 2.623 h -2.624 z m 7.863,-2.623 h 2.623 v 2.624 h -2.623 z m -5.239,-0.01 h 2.623 v 2.624 h -2.623 z m 2.615,-5.246 h 2.623 v 2.624 h -2.623 z m 2.624,-2.623 h 2.623 v 2.624 h -2.623 z m -5.239,-0.022 h 2.623 v 2.623 h -2.623 z m 5.239,-5.225 h 2.623 v 2.624 h -2.623 z"
         id="path436" />
    </clipPath>
    <clipPath
       clipPathUnits="userSpaceOnUse"
       id="clipPath448">
      <path
         d="M 0,216 H 432 V 0 H 0 Z"
         id="path446" />
    </clipPath>
  </defs>
  <sodipodi:namedview
     id="namedview4"
     pagecolor="#ffffff"
     bordercolor="#000000"
     borderopacity="0.25"
     inkscape:showpageshadow="2"
     inkscape:pageopacity="0.0"
     inkscape:pagecheckerboard="0"
     inkscape:deskcolor="#d1d1d1" />
  <g
     id="g8"
     inkscape:groupmode="layer"
     inkscape:label="UDL4CS Logo"
     transform="matrix(1.3333333,0,0,-1.3333333,0,288)">
    <g
       id="g10">
      <g
         id="g12">
        <g
           id="g18">
          <g
             id="g20">
            <path
               d="m 290.671,199.672 h -0.051 -7.76 v -0.004 c -4.26,-0.042 -7.702,-3.493 -7.731,-7.759 v 0 h -0.003 c 0,-0.009 0.002,-0.017 0.002,-0.026 v 0 c 0,-0.009 -0.002,-0.018 -0.002,-0.027 v 0 h 0.003 c 0.027,-3.991 3.042,-7.269 6.92,-7.709 v 0 h -6.923 c 0,-4.29 3.456,-7.769 7.734,-7.812 v 0 -0.003 h 7.811 v 0.002 c 4.272,0.028 7.729,3.485 7.757,7.759 v 0 h 0.004 c 0,0.009 -0.002,0.018 -0.002,0.027 v 0 c 0,0.009 0.002,0.018 0.002,0.027 v 0 h -0.004 c -0.027,3.994 -3.045,7.272 -6.925,7.709 v 0 h 5.81 c 0.618,0 1.119,0.501 1.119,1.119 v 0 c 0,3.698 -2.997,6.697 -6.693,6.697 v 0 z m -25.698,0 h -0.078 -7.734 v -0.004 c -4.264,-0.042 -7.709,-3.5 -7.731,-7.771 v 0 h -0.003 v -7.816 h 0.003 c 0.036,-4.26 3.475,-7.703 7.731,-7.746 v 0 -0.003 h 7.734 0.078 0.92 c 3.763,0 6.813,3.051 6.813,6.817 v 0 c 0,0.551 -0.446,0.998 -0.997,0.998 v 0 h -6.736 -0.078 -7.656 v 7.709 h 7.656 0.078 6.616 c 0.617,0 1.117,0.501 1.117,1.119 v 0 c 0,3.698 -2.996,6.697 -6.692,6.697 v 0 z m -79.704,0 h -7.657 -0.077 -6.377 c -0.75,0 -1.357,-0.608 -1.357,-1.358 v 0 -6.417 -0.041 -7.709 -0.066 -6.431 c 0,-0.728 0.59,-1.318 1.318,-1.318 v 0 h 6.416 0.077 7.657 0.077 v 0.003 c 4.256,0.043 7.695,3.486 7.731,7.746 v 0 h 0.004 v 7.816 h -0.003 c -0.022,4.271 -3.468,7.729 -7.732,7.771 v 0 0.004 z m -7.657,-7.816 h 7.656 v -7.708 h -7.656 z m 19.24,7.792 c -0.747,0 -1.352,-0.606 -1.352,-1.352 v 0 -6.386 -0.078 -7.661 -0.077 -6.382 c 0,-0.75 0.607,-1.356 1.356,-1.356 v 0 h 6.415 0.041 7.704 0.066 6.427 c 0.728,0 1.318,0.589 1.318,1.317 v 0 5.146 c 0,0.747 -0.605,1.352 -1.352,1.352 v 0 h -6.393 -0.066 -7.704 v 7.661 0.078 6.79 c 0,0.524 -0.424,0.948 -0.948,0.948 v 0 z m -36.285,0 c -0.551,0 -0.997,-0.447 -0.997,-0.998 v 0 -6.74 -0.078 -7.661 h -7.705 v 7.661 0.078 6.619 c 0,0.618 -0.5,1.119 -1.118,1.119 v 0 h -4.099 v -2.391 h 2.623 v -2.623 h -2.623 v 2.609 h -2.594 v -5.232 h 2.594 v -2.623 h -2.594 v -5.246 h 2.594 v 2.622 h 2.623 v -2.622 h -2.623 v -2.624 h 2.623 v -2.622 h 2.624 v 2.622 h 2.622 v -2.622 h -2.622 v -2.54 h 7.741 v 0.003 c 4.257,0.036 7.699,3.476 7.742,7.735 v 0 h 0.003 v 7.738 0.078 6.574 c 0,0.643 -0.521,1.164 -1.164,1.164 v 0 z m 76.21,-0.05 v -0.03 h -7.775 l -7.755,-7.776 v -6.453 c 0,-0.75 0.607,-1.357 1.356,-1.357 v 0 h 6.412 0.044 7.718 v -6.356 c 0,-0.75 0.607,-1.357 1.356,-1.357 v 0 h 5.383 c 0.592,0 1.072,0.48 1.072,1.072 v 0 6.641 0.102 7.698 0.015 6.78 c 0,0.563 -0.457,1.021 -1.021,1.021 v 0 z m 0.017,-4.042 v -7.657 h -7.656 z m -92.266,-14.038 c 0.794,-2.198 2.539,-3.933 4.743,-4.71 v 0 2.088 h -2.623 v 2.622 z"
               style="fill:url(#linearGradient30);stroke:none"
               id="path32" />
          </g>
        </g>
      </g>
    </g>
    <g
       id="g34">
      <g
         id="g36"
         clip-path="url(#clipPath40)">
        <path
           d="m 136.192,194.645 h -2.624 v -2.623 h 2.624 z m 0,-5.257 h 2.623 v 2.623 h -2.623 z m 5.239,-13.116 h 2.624 v 2.624 h -2.624 z m 0,23.594 v -2.609 -0.014 -2.609 h 2.623 v 2.609 0.014 2.609 z m 0,-18.347 h 2.624 v 2.623 h -2.624 z m -5.239,-0.022 h 2.623 v 2.623 h -2.623 z m 2.616,2.645 h 2.623 v 2.623 h -2.623 z m 2.623,7.879 h 2.624 v -2.623 h -2.624 z"
           style="fill:#cc2952;fill-opacity:1;fill-rule:nonzero;stroke:none"
           id="path42" />
      </g>
    </g>
    <g
       id="g44">
      <g
         id="g46"
         clip-path="url(#clipPath50)">
        <path
           d="m 144.838,174.177 h -12.061 v 27.156 h 12.061 z"
           style="fill:#cc2952;fill-opacity:1;fill-rule:nonzero;stroke:none"
           id="path52" />
      </g>
    </g>
    <g
       id="g54">
      <g
         id="g56"
         clip-path="url(#clipPath60)">
        <g
           id="g62"
           transform="translate(131.4014,161.4795)">
          <path
             d="m 0,0 c 0,-1.943 -0.912,-2.924 -2.706,-2.924 -1.784,0 -2.695,0.981 -2.695,2.934 v 3.2 h 1.387 v -3.2 c 0,-1.12 0.456,-1.676 1.308,-1.676 0.873,0 1.329,0.556 1.329,1.676 v 3.2 L 0,3.21 Z"
             style="fill:#0b1a73;fill-opacity:1;fill-rule:nonzero;stroke:none"
             id="path64" />
        </g>
        <g
           id="g66"
           transform="translate(137.7109,158.6445)">
          <path
             d="M 0,0 -2.844,3.766 V 0 h -1.378 v 6.045 h 1.249 L -0.119,2.24 V 6.045 H 1.258 L 1.258,0 Z"
             style="fill:#0b1a73;fill-opacity:1;fill-rule:nonzero;stroke:none"
             id="path68" />
        </g>
        <path
           d="m 141.287,164.69 h 1.377 v -6.045 h -1.377 z"
           style="fill:#0b1a73;fill-opacity:1;fill-rule:nonzero;stroke:none"
           id="path70" />
        <g
           id="g72"
           transform="translate(146.6479,158.6445)">
          <path
             d="m 0,0 -2.369,6.045 h 1.536 L 0.574,2.051 C 0.644,1.833 0.713,1.605 0.773,1.388 0.832,1.605 0.901,1.833 0.971,2.051 L 2.447,6.045 H 3.915 L 1.546,0 Z"
             style="fill:#0b1a73;fill-opacity:1;fill-rule:nonzero;stroke:none"
             id="path74" />
        </g>
        <g
           id="g76"
           transform="translate(152.165,158.6445)">
          <path
             d="M 0,0 V 6.045 H 4.331 V 4.787 H 1.377 V 3.598 H 3.915 V 2.389 H 1.377 V 1.239 H 4.41 V 0 Z"
             style="fill:#0b1a73;fill-opacity:1;fill-rule:nonzero;stroke:none"
             id="path78" />
        </g>
        <g
           id="g80"
           transform="translate(160.9429,161.5283)">
          <path
             d="M 0,0 C 0.783,0 1.219,0.347 1.219,0.962 1.219,1.586 0.783,1.953 0,1.953 H -1.05 V 0 Z M 2.766,-2.884 H 1.289 l -1.318,1.755 H -1.05 v -1.755 h -1.378 v 6.046 h 2.408 c 1.675,0 2.606,-0.793 2.606,-2.2 0,-0.912 -0.455,-1.556 -1.248,-1.874 l 1.428,-1.862 z"
             style="fill:#0b1a73;fill-opacity:1;fill-rule:nonzero;stroke:none"
             id="path82" />
        </g>
        <g
           id="g84"
           transform="translate(169.3652,163.2134)">
          <path
             d="m 0,0 c -0.872,0.337 -1.398,0.446 -1.963,0.446 -0.435,0 -0.753,-0.218 -0.753,-0.515 0,-0.417 0.327,-0.525 1.556,-0.932 1.169,-0.396 1.676,-0.823 1.676,-1.853 0,-1.13 -0.833,-1.804 -2.132,-1.804 -0.802,0 -1.982,0.317 -2.784,0.803 l 0.515,1.07 c 0.883,-0.465 1.606,-0.674 2.199,-0.674 0.447,0 0.714,0.188 0.714,0.525 0,0.387 -0.218,0.526 -1.417,0.883 -1.1,0.327 -1.743,0.852 -1.743,1.873 0,1.011 0.742,1.754 2.061,1.754 0.723,0 1.506,-0.119 2.477,-0.545 z"
             style="fill:#0b1a73;fill-opacity:1;fill-rule:nonzero;stroke:none"
             id="path86" />
        </g>
        <g
           id="g88"
           transform="translate(174.6841,162.9756)">
          <path
             d="M 0,0 C -0.089,0.248 -0.149,0.446 -0.188,0.615 -0.238,0.446 -0.298,0.248 -0.387,0 L -1.11,-1.953 H 0.732 Z M -1.983,-4.331 H -3.47 l 2.349,6.045 H 0.753 L 3.092,-4.331 H 1.615 l -0.427,1.12 h -2.755 z"
             style="fill:#0b1a73;fill-opacity:1;fill-rule:nonzero;stroke:none"
             id="path90" />
        </g>
        <g
           id="g92"
           transform="translate(179.4292,158.6445)">
          <path
             d="M 0,0 V 6.045 H 1.377 V 1.269 H 4.163 V 0 Z"
             style="fill:#0b1a73;fill-opacity:1;fill-rule:nonzero;stroke:none"
             id="path94" />
        </g>
        <g
           id="g96"
           transform="translate(190.6333,159.8735)">
          <path
             d="M 0,0 C 1.308,0 1.992,0.604 1.992,1.804 1.992,2.993 1.338,3.588 0,3.588 H -0.684 V 0 Z M 0,4.816 C 2.16,4.816 3.399,3.657 3.399,1.804 3.399,-0.06 2.13,-1.229 0,-1.229 h -2.062 v 6.045 z"
             style="fill:#0b1a73;fill-opacity:1;fill-rule:nonzero;stroke:none"
             id="path98" />
        </g>
        <g
           id="g100"
           transform="translate(195.8843,158.6445)">
          <path
             d="M 0,0 V 6.045 H 4.331 V 4.787 H 1.377 V 3.598 H 3.915 V 2.389 H 1.377 V 1.239 H 4.41 V 0 Z"
             style="fill:#0b1a73;fill-opacity:1;fill-rule:nonzero;stroke:none"
             id="path102" />
        </g>
        <g
           id="g104"
           transform="translate(206.2666,163.2134)">
          <path
             d="m 0,0 c -0.872,0.337 -1.397,0.446 -1.962,0.446 -0.436,0 -0.754,-0.218 -0.754,-0.515 0,-0.417 0.327,-0.525 1.556,-0.932 1.17,-0.396 1.676,-0.823 1.676,-1.853 0,-1.13 -0.833,-1.804 -2.132,-1.804 -0.802,0 -1.982,0.317 -2.784,0.803 l 0.515,1.07 c 0.883,-0.465 1.606,-0.674 2.199,-0.674 0.447,0 0.715,0.188 0.715,0.525 0,0.387 -0.218,0.526 -1.418,0.883 -1.1,0.327 -1.743,0.852 -1.743,1.873 0,1.011 0.742,1.754 2.061,1.754 0.723,0 1.506,-0.119 2.477,-0.545 z"
             style="fill:#0b1a73;fill-opacity:1;fill-rule:nonzero;stroke:none"
             id="path106" />
        </g>
        <path
           d="m 208.743,164.69 h 1.377 v -6.045 h -1.377 z"
           style="fill:#0b1a73;fill-opacity:1;fill-rule:nonzero;stroke:none"
           id="path108" />
        <g
           id="g110"
           transform="translate(217.7896,159.3286)">
          <path
             d="m 0,0 c -1.031,-0.545 -1.893,-0.773 -2.894,-0.773 -1.784,0 -2.903,1.11 -2.903,3.102 0,1.893 1.159,3.132 2.983,3.132 0.762,0 1.734,-0.169 2.537,-0.516 l -0.357,-1.05 c -0.723,0.218 -1.358,0.347 -2.061,0.347 -1.051,0 -1.695,-0.743 -1.695,-1.913 0,-1.219 0.584,-1.863 1.556,-1.863 0.565,0 1.07,0.049 1.615,0.307 v 0.763 h -1.715 v 1.12 l 2.934,0 z"
             style="fill:#0b1a73;fill-opacity:1;fill-rule:nonzero;stroke:none"
             id="path112" />
        </g>
        <g
           id="g114"
           transform="translate(224.0508,158.6445)">
          <path
             d="M 0,0 -2.845,3.766 V 0 h -1.377 v 6.045 h 1.249 L -0.119,2.24 V 6.045 H 1.258 L 1.258,0 Z"
             style="fill:#0b1a73;fill-opacity:1;fill-rule:nonzero;stroke:none"
             id="path116" />
        </g>
        <g
           id="g118"
           transform="translate(234.522,161.9751)">
          <path
             d="M 0,0 V -1.21 H -2.478 V -3.331 H -3.855 V 2.715 H 0.396 V 1.456 H -2.478 V 0 Z"
             style="fill:#0b1a73;fill-opacity:1;fill-rule:nonzero;stroke:none"
             id="path120" />
        </g>
        <g
           id="g122"
           transform="translate(241.0107,161.6572)">
          <path
             d="m 0,0 c 0,1.249 -0.584,1.883 -1.595,1.883 -1.011,0 -1.596,-0.634 -1.596,-1.883 0,-1.219 0.585,-1.853 1.596,-1.853 C -0.584,-1.853 0,-1.219 0,0 m 1.407,0 c 0,-1.982 -1.13,-3.102 -3.002,-3.102 -1.884,0 -3.003,1.12 -3.003,3.102 0,2.012 1.119,3.132 3.003,3.132 1.872,0 3.002,-1.12 3.002,-3.132"
             style="fill:#0b1a73;fill-opacity:1;fill-rule:nonzero;stroke:none"
             id="path124" />
        </g>
        <g
           id="g126"
           transform="translate(246.6968,161.5283)">
          <path
             d="M 0,0 C 0.783,0 1.219,0.347 1.219,0.962 1.219,1.586 0.783,1.953 0,1.953 H -1.05 V 0 Z M 2.766,-2.884 H 1.289 l -1.318,1.755 H -1.05 v -1.755 h -1.378 v 6.046 h 2.408 c 1.675,0 2.607,-0.793 2.607,-2.2 0,-0.912 -0.456,-1.556 -1.249,-1.874 l 1.428,-1.862 z"
             style="fill:#0b1a73;fill-opacity:1;fill-rule:nonzero;stroke:none"
             id="path128" />
        </g>
        <g
           id="g130"
           transform="translate(254.2949,158.6445)">
          <path
             d="M 0,0 V 6.045 H 1.377 V 1.269 H 4.163 V 0 Z"
             style="fill:#0b1a73;fill-opacity:1;fill-rule:nonzero;stroke:none"
             id="path132" />
        </g>
        <g
           id="g134"
           transform="translate(260.2588,158.6445)">
          <path
             d="M 0,0 V 6.045 H 4.331 V 4.787 H 1.377 V 3.598 H 3.915 V 2.389 H 1.377 V 1.239 H 4.41 V 0 Z"
             style="fill:#0b1a73;fill-opacity:1;fill-rule:nonzero;stroke:none"
             id="path136" />
        </g>
        <g
           id="g138"
           transform="translate(269.7202,162.9756)">
          <path
             d="M 0,0 C -0.09,0.248 -0.149,0.446 -0.188,0.615 -0.238,0.446 -0.298,0.248 -0.387,0 L -1.11,-1.953 h 1.843 z m -1.982,-4.331 h -1.487 l 2.348,6.045 H 0.753 L 3.092,-4.331 H 1.615 l -0.426,1.12 h -2.755 z"
             style="fill:#0b1a73;fill-opacity:1;fill-rule:nonzero;stroke:none"
             id="path140" />
        </g>
        <g
           id="g142"
           transform="translate(276.8921,161.5283)">
          <path
             d="M 0,0 C 0.783,0 1.219,0.347 1.219,0.962 1.219,1.586 0.783,1.953 0,1.953 H -1.05 V 0 Z M 2.766,-2.884 H 1.289 l -1.318,1.755 H -1.05 v -1.755 h -1.377 v 6.046 h 2.407 c 1.676,0 2.607,-0.793 2.607,-2.2 0,-0.912 -0.456,-1.556 -1.249,-1.874 l 1.428,-1.862 z"
             style="fill:#0b1a73;fill-opacity:1;fill-rule:nonzero;stroke:none"
             id="path144" />
        </g>
        <g
           id="g146"
           transform="translate(285.5806,158.6445)">
          <path
             d="M 0,0 -2.844,3.766 V 0 h -1.378 v 6.045 h 1.249 L -0.119,2.24 V 6.045 H 1.258 L 1.258,0 Z"
             style="fill:#0b1a73;fill-opacity:1;fill-rule:nonzero;stroke:none"
             id="path148" />
        </g>
        <path
           d="m 289.156,164.69 h 1.377 v -6.045 h -1.377 z"
           style="fill:#0b1a73;fill-opacity:1;fill-rule:nonzero;stroke:none"
           id="path150" />
        <g
           id="g152"
           transform="translate(297.0732,158.6445)">
          <path
             d="M 0,0 -2.844,3.766 V 0 h -1.378 v 6.045 h 1.249 L -0.119,2.24 V 6.045 H 1.258 L 1.258,0 Z"
             style="fill:#0b1a73;fill-opacity:1;fill-rule:nonzero;stroke:none"
             id="path154" />
        </g>
        <g
           id="g156"
           transform="translate(306,159.3286)">
          <path
             d="m 0,0 c -1.031,-0.545 -1.893,-0.773 -2.894,-0.773 -1.784,0 -2.903,1.11 -2.903,3.102 0,1.893 1.159,3.132 2.983,3.132 0.762,0 1.734,-0.169 2.537,-0.516 l -0.357,-1.05 c -0.723,0.218 -1.358,0.347 -2.061,0.347 -1.051,0 -1.695,-0.743 -1.695,-1.913 0,-1.219 0.584,-1.863 1.556,-1.863 0.565,0 1.07,0.049 1.615,0.307 v 0.763 h -1.715 v 1.12 l 2.934,0 z"
             style="fill:#0b1a73;fill-opacity:1;fill-rule:nonzero;stroke:none"
             id="path158" />
        </g>
        <g
           id="g160"
           transform="translate(156.54,150.0859)">
          <path
             d="M 0,0 V -1.209 H -2.478 V -3.33 H -3.855 V 2.716 H 0.396 V 1.457 H -2.478 V 0 Z"
             style="fill:#0b1a73;fill-opacity:1;fill-rule:nonzero;stroke:none"
             id="path162" />
        </g>
        <g
           id="g164"
           transform="translate(163.0288,149.769)">
          <path
             d="m 0,0 c 0,1.249 -0.584,1.883 -1.596,1.883 -1.01,0 -1.595,-0.634 -1.595,-1.883 0,-1.219 0.585,-1.854 1.595,-1.854 C -0.584,-1.854 0,-1.219 0,0 m 1.407,0 c 0,-1.982 -1.13,-3.102 -3.003,-3.102 -1.883,0 -3.003,1.12 -3.003,3.102 0,2.012 1.12,3.132 3.003,3.132 1.873,0 3.003,-1.12 3.003,-3.132"
             style="fill:#0b1a73;fill-opacity:1;fill-rule:nonzero;stroke:none"
             id="path166" />
        </g>
        <g
           id="g168"
           transform="translate(168.7158,149.6401)">
          <path
             d="M 0,0 C 0.783,0 1.219,0.347 1.219,0.961 1.219,1.585 0.783,1.952 0,1.952 H -1.05 V 0 Z M 2.766,-2.884 H 1.289 l -1.318,1.755 H -1.05 v -1.755 h -1.378 v 6.046 h 2.408 c 1.675,0 2.606,-0.793 2.606,-2.201 0,-0.912 -0.455,-1.556 -1.248,-1.873 l 1.428,-1.863 z"
             style="fill:#0b1a73;fill-opacity:1;fill-rule:nonzero;stroke:none"
             id="path170" />
        </g>
        <g
           id="g172"
           transform="translate(181.5068,147.3706)">
          <path
             d="m 0,0 c -0.803,-0.486 -1.586,-0.704 -2.537,-0.704 -1.824,0 -2.944,1.11 -2.944,3.102 0,2.002 1.12,3.132 3.042,3.132 0.753,0 1.556,-0.188 2.221,-0.535 l -0.416,-1.04 c -0.684,0.217 -1.229,0.326 -1.745,0.326 -1.11,0 -1.705,-0.634 -1.705,-1.883 0.01,-1.129 0.625,-1.853 1.606,-1.853 0.733,0 1.269,0.139 2.012,0.496 z"
             style="fill:#0b1a73;fill-opacity:1;fill-rule:nonzero;stroke:none"
             id="path174" />
        </g>
        <g
           id="g176"
           transform="translate(187.4795,149.769)">
          <path
             d="m 0,0 c 0,1.249 -0.585,1.883 -1.596,1.883 -1.01,0 -1.595,-0.634 -1.595,-1.883 0,-1.219 0.585,-1.854 1.595,-1.854 C -0.585,-1.854 0,-1.219 0,0 m 1.407,0 c 0,-1.982 -1.13,-3.102 -3.003,-3.102 -1.883,0 -3.003,1.12 -3.003,3.102 0,2.012 1.12,3.132 3.003,3.132 1.873,0 3.003,-1.12 3.003,-3.132"
             style="fill:#0b1a73;fill-opacity:1;fill-rule:nonzero;stroke:none"
             id="path178" />
        </g>
        <g
           id="g180"
           transform="translate(196.2383,150.2349)">
          <path
             d="M 0,0 V 0.297 L -1.586,-3.479 H -2.468 L -4.034,0.297 V 0.029 l -0.109,-3.508 h -1.388 l 0.228,6.046 h 1.576 l 1.556,-3.647 c 0.069,-0.159 0.119,-0.317 0.149,-0.426 0.029,0.109 0.079,0.267 0.139,0.426 l 1.556,3.647 H 1.248 L 1.486,-3.479 H 0.089 Z"
             style="fill:#0b1a73;fill-opacity:1;fill-rule:nonzero;stroke:none"
             id="path182" />
        </g>
        <g
           id="g184"
           transform="translate(202.3589,149.4517)">
          <path
             d="m 0,0 c 0.773,0 1.209,0.387 1.199,1.061 0,0.693 -0.455,1.08 -1.258,1.08 H -0.981 V 0 Z m -0.05,3.35 c 1.666,0 2.597,-0.823 2.597,-2.289 0,-1.437 -0.922,-2.25 -2.537,-2.25 H -0.981 V -2.695 H -2.358 V 3.35 Z"
             style="fill:#0b1a73;fill-opacity:1;fill-rule:nonzero;stroke:none"
             id="path186" />
        </g>
        <g
           id="g188"
           transform="translate(212.0708,149.5908)">
          <path
             d="m 0,0 c 0,-1.943 -0.912,-2.924 -2.706,-2.924 -1.784,0 -2.695,0.981 -2.695,2.934 v 3.201 h 1.387 V 0.01 c 0,-1.12 0.456,-1.676 1.308,-1.676 0.873,0 1.329,0.556 1.329,1.676 v 3.201 l 1.377,0 z"
             style="fill:#0b1a73;fill-opacity:1;fill-rule:nonzero;stroke:none"
             id="path190" />
        </g>
        <g
           id="g192"
           transform="translate(216.9233,151.543)">
          <path
             d="M 0,0 V -4.787 H -1.377 V 0 H -3.319 V 1.259 H 1.953 L 1.953,0 Z"
             style="fill:#0b1a73;fill-opacity:1;fill-rule:nonzero;stroke:none"
             id="path194" />
        </g>
        <g
           id="g196"
           transform="translate(220.5088,146.7563)">
          <path
             d="M 0,0 V 6.045 H 4.331 V 4.787 H 1.377 V 3.598 H 3.915 V 2.389 H 1.377 V 1.239 H 4.41 V 0 Z"
             style="fill:#0b1a73;fill-opacity:1;fill-rule:nonzero;stroke:none"
             id="path198" />
        </g>
        <g
           id="g200"
           transform="translate(229.2866,149.6401)">
          <path
             d="M 0,0 C 0.783,0 1.219,0.347 1.219,0.961 1.219,1.585 0.783,1.952 0,1.952 H -1.05 V 0 Z M 2.766,-2.884 H 1.289 l -1.318,1.755 H -1.05 v -1.755 h -1.378 v 6.046 h 2.408 c 1.675,0 2.606,-0.793 2.606,-2.201 0,-0.912 -0.455,-1.556 -1.248,-1.873 l 1.428,-1.863 z"
             style="fill:#0b1a73;fill-opacity:1;fill-rule:nonzero;stroke:none"
             id="path202" />
        </g>
        <g
           id="g204"
           transform="translate(240.8784,151.3252)">
          <path
             d="m 0,0 c -0.872,0.336 -1.398,0.446 -1.963,0.446 -0.435,0 -0.753,-0.218 -0.753,-0.515 0,-0.417 0.327,-0.526 1.556,-0.932 1.169,-0.396 1.675,-0.823 1.675,-1.853 0,-1.13 -0.833,-1.804 -2.131,-1.804 -0.802,0 -1.982,0.317 -2.785,0.803 l 0.516,1.07 c 0.882,-0.466 1.606,-0.674 2.199,-0.674 0.446,0 0.714,0.188 0.714,0.525 0,0.387 -0.218,0.525 -1.417,0.882 -1.1,0.327 -1.744,0.852 -1.744,1.873 0,1.011 0.743,1.755 2.062,1.755 0.723,0 1.506,-0.119 2.477,-0.546 z"
             style="fill:#0b1a73;fill-opacity:1;fill-rule:nonzero;stroke:none"
             id="path206" />
        </g>
        <g
           id="g208"
           transform="translate(248.606,147.3706)">
          <path
             d="m 0,0 c -0.803,-0.486 -1.586,-0.704 -2.537,-0.704 -1.824,0 -2.944,1.11 -2.944,3.102 0,2.002 1.12,3.132 3.042,3.132 0.753,0 1.556,-0.188 2.221,-0.535 l -0.416,-1.04 c -0.684,0.217 -1.23,0.326 -1.745,0.326 -1.11,0 -1.705,-0.634 -1.705,-1.883 0.01,-1.129 0.625,-1.853 1.605,-1.853 0.734,0 1.269,0.139 2.012,0.496 z"
             style="fill:#0b1a73;fill-opacity:1;fill-rule:nonzero;stroke:none"
             id="path210" />
        </g>
        <path
           d="m 250.357,152.802 h 1.377 v -6.045 h -1.377 z"
           style="fill:#0b1a73;fill-opacity:1;fill-rule:nonzero;stroke:none"
           id="path212" />
        <g
           id="g214"
           transform="translate(254.0527,146.7563)">
          <path
             d="M 0,0 V 6.045 H 4.33 V 4.787 H 1.377 V 3.598 H 3.914 V 2.389 H 1.377 V 1.239 H 4.41 V 0 Z"
             style="fill:#0b1a73;fill-opacity:1;fill-rule:nonzero;stroke:none"
             id="path216" />
        </g>
        <g
           id="g218"
           transform="translate(264.6245,146.7563)">
          <path
             d="M 0,0 -2.845,3.766 V 0 h -1.377 v 6.045 h 1.249 L -0.119,2.239 V 6.045 H 1.258 L 1.258,0 Z"
             style="fill:#0b1a73;fill-opacity:1;fill-rule:nonzero;stroke:none"
             id="path220" />
        </g>
        <g
           id="g222"
           transform="translate(273.2354,147.3706)">
          <path
             d="m 0,0 c -0.803,-0.486 -1.586,-0.704 -2.537,-0.704 -1.824,0 -2.944,1.11 -2.944,3.102 0,2.002 1.12,3.132 3.042,3.132 0.753,0 1.556,-0.188 2.221,-0.535 l -0.416,-1.04 c -0.684,0.217 -1.229,0.326 -1.745,0.326 -1.11,0 -1.705,-0.634 -1.705,-1.883 0.01,-1.129 0.625,-1.853 1.606,-1.853 0.733,0 1.269,0.139 2.012,0.496 z"
             style="fill:#0b1a73;fill-opacity:1;fill-rule:nonzero;stroke:none"
             id="path224" />
        </g>
        <g
           id="g226"
           transform="translate(274.9863,146.7563)">
          <path
             d="M 0,0 V 6.045 H 4.33 V 4.787 H 1.377 V 3.598 H 3.914 V 2.389 H 1.377 V 1.239 H 4.41 V 0 Z"
             style="fill:#0b1a73;fill-opacity:1;fill-rule:nonzero;stroke:none"
             id="path228" />
        </g>
        <path
           d="M 219.521,1.66 H 1.826 v 128.092 h 217.695 z"
           style="fill:#010101;fill-opacity:1;fill-rule:nonzero;stroke:none"
           id="path230" />
        <path
           d="M 429.489,1.54 H 224.533 v 128.332 h 204.956 z"
           style="fill:#f3f3f3;fill-opacity:1;fill-rule:nonzero;stroke:none"
           id="path232" />
        <g
           id="g234"
           transform="translate(131.4683,80.3379)">
          <path
             d="M 0,0 H -7.656 L 0,7.656 Z m 6.772,11.699 h -6.79 v -0.03 H -7.792 L -15.548,3.893 V -2.56 c 0,-0.75 0.608,-1.357 1.357,-1.357 h 6.411 0.044 7.718 v -6.356 c 0,-0.749 0.607,-1.357 1.356,-1.357 h 5.383 c 0.592,0 1.072,0.48 1.072,1.073 v 6.64 0.103 7.697 0.015 6.78 c 0,0.564 -0.457,1.021 -1.021,1.021 m 54.865,-15.45 c 0,-0.01 -10e-4,-0.019 -10e-4,-0.027 0,-0.01 10e-4,-0.018 10e-4,-0.028 h -0.003 c -0.029,-4.274 -3.485,-7.731 -7.757,-7.758 v -0.003 h -7.811 v 0.004 c -4.278,0.042 -7.734,3.521 -7.734,7.812 h 6.922 c -3.877,0.439 -6.892,3.717 -6.92,7.708 h -0.002 c 0,0.009 10e-4,0.018 10e-4,0.027 0,0.009 -10e-4,0.017 -10e-4,0.026 h 0.002 c 0.029,4.266 3.472,7.717 7.732,7.759 v 0.004 h 7.76 0.051 1.067 c 3.697,0 6.693,-2.998 6.693,-6.697 0,-0.618 -0.501,-1.119 -1.118,-1.119 h -5.811 c 3.88,-0.437 6.899,-3.715 6.926,-7.708 z M -17.967,-5.08 v -5.145 c 0,-0.728 -0.591,-1.318 -1.318,-1.318 h -6.427 -0.067 -7.704 -0.041 -6.414 c -0.749,0 -1.356,0.607 -1.356,1.357 v 6.381 0.077 7.661 0.078 6.386 c 0,0.747 0.605,1.352 1.351,1.352 h 5.513 c 0.523,0 0.947,-0.424 0.947,-0.948 V 4.011 3.933 -3.728 h 7.704 0.067 6.393 c 0.746,0 1.352,-0.605 1.352,-1.352 m 38.411,9.037 v -7.708 h 7.657 0.077 6.737 c 0.551,0 0.997,-0.447 0.997,-0.999 0,-3.765 -3.051,-6.817 -6.813,-6.817 h -0.921 -0.077 -7.734 v 0.004 c -4.256,0.042 -7.695,3.486 -7.731,7.745 h -0.003 v 7.816 h 0.002 c 0.022,4.272 3.468,7.729 7.732,7.771 v 0.004 h 7.734 0.077 1.042 c 3.696,0 6.692,-2.998 6.692,-6.697 0,-0.618 -0.5,-1.119 -1.119,-1.119 h -6.615 -0.077 z m -110.59,-12.96 h 2.623 v -2.088 c -2.204,0.778 -3.95,2.513 -4.743,4.711 h 2.12 z m 20.732,19.588 V 4.011 3.933 -3.805 h -0.003 c -0.042,-4.258 -3.484,-7.699 -7.742,-7.735 v -0.003 H -84.9 v 2.54 h 2.623 V -6.38 H -84.9 v -2.623 h -2.623 v 2.623 h -2.623 v 2.623 h 2.623 v 2.623 h -2.623 v -2.623 h -2.595 v 5.246 h 2.595 v 2.623 h -2.595 v 5.232 h 2.595 V 6.735 h 2.623 v 2.624 h -2.623 v 2.39 h 4.098 c 0.618,0 1.119,-0.501 1.119,-1.119 V 4.011 3.933 -3.728 h 7.704 v 7.661 0.078 6.74 c 0,0.551 0.447,0.998 0.997,0.998 h 5.651 c 0.643,0 1.163,-0.521 1.163,-1.164 m 17.888,-14.336 h -7.656 v 7.708 h 7.656 z m 0.078,15.52 v 0.004 h -0.078 -7.656 -0.078 -6.378 c -0.748,0 -1.356,-0.608 -1.356,-1.357 V 3.998 3.957 -3.751 -3.818 -10.249 c 0,-0.728 0.59,-1.318 1.318,-1.318 h 6.416 0.078 7.656 0.078 v 0.004 c 4.255,0.042 7.695,3.486 7.73,7.745 h 0.004 v 7.816 h -0.002 c -0.022,4.272 -3.468,7.729 -7.732,7.771"
             style="fill:#ffffff;fill-opacity:1;fill-rule:nonzero;stroke:none"
             id="path236" />
        </g>
        <path
           d="M 30.865,87.083 H 28.242 V 84.46 h 2.623 z m 0,-5.256 h 2.623 v 2.623 h -2.623 z m 5.239,-13.116 h 2.624 v 2.623 h -2.624 z m 0,23.594 v -2.608 -0.015 -2.609 h 2.624 v 2.609 0.015 2.608 z m 0,-18.347 h 2.624 v 2.623 h -2.624 z m -5.239,-0.022 h 2.623 v 2.623 h -2.623 z m 2.616,2.645 h 2.623 v 2.624 h -2.623 z m 2.623,7.879 h 2.624 v -2.623 h -2.624 z"
           style="fill:#ffffff;fill-opacity:1;fill-rule:nonzero;stroke:none"
           id="path238" />
      </g>
    </g>
    <g
       id="g240">
      <g
         id="g242"
         clip-path="url(#clipPath246)">
        <path
           d="M 39.512,66.617 H 27.45 v 27.155 h 12.062 z"
           style="fill:#ffffff;fill-opacity:1;fill-rule:nonzero;stroke:none"
           id="path248" />
      </g>
    </g>
    <g
       id="g250">
      <g
         id="g252"
         clip-path="url(#clipPath256)">
        <g
           id="g258"
           transform="translate(26.0752,53.9185)">
          <path
             d="m 0,0 c 0,-1.943 -0.912,-2.924 -2.706,-2.924 -1.784,0 -2.695,0.981 -2.695,2.934 v 3.2 h 1.387 v -3.2 c 0,-1.12 0.456,-1.676 1.308,-1.676 0.872,0 1.329,0.556 1.329,1.676 v 3.2 L 0,3.21 Z"
             style="fill:#ffffff;fill-opacity:1;fill-rule:nonzero;stroke:none"
             id="path260" />
        </g>
        <g
           id="g262"
           transform="translate(32.3848,51.0835)">
          <path
             d="M 0,0 -2.844,3.766 V 0 h -1.378 v 6.045 h 1.249 L -0.119,2.24 V 6.045 H 1.258 L 1.258,0 Z"
             style="fill:#ffffff;fill-opacity:1;fill-rule:nonzero;stroke:none"
             id="path264" />
        </g>
        <path
           d="m 35.961,57.129 h 1.377 v -6.045 h -1.377 z"
           style="fill:#ffffff;fill-opacity:1;fill-rule:nonzero;stroke:none"
           id="path266" />
        <g
           id="g268"
           transform="translate(41.3218,51.0835)">
          <path
             d="m 0,0 -2.369,6.045 h 1.536 L 0.574,2.052 C 0.644,1.834 0.713,1.605 0.773,1.388 0.832,1.605 0.901,1.834 0.971,2.052 L 2.447,6.045 H 3.914 L 1.546,0 Z"
             style="fill:#ffffff;fill-opacity:1;fill-rule:nonzero;stroke:none"
             id="path270" />
        </g>
        <g
           id="g272"
           transform="translate(46.8389,51.0835)">
          <path
             d="M 0,0 V 6.045 H 4.33 V 4.787 H 1.377 V 3.598 H 3.915 V 2.389 H 1.377 V 1.239 H 4.41 V 0 Z"
             style="fill:#ffffff;fill-opacity:1;fill-rule:nonzero;stroke:none"
             id="path274" />
        </g>
        <g
           id="g276"
           transform="translate(55.6162,53.9673)">
          <path
             d="M 0,0 C 0.784,0 1.219,0.347 1.219,0.962 1.219,1.586 0.784,1.953 0,1.953 H -1.05 V 0 Z M 2.766,-2.884 H 1.29 l -1.319,1.755 H -1.05 v -1.755 h -1.377 v 6.046 h 2.407 c 1.676,0 2.607,-0.793 2.607,-2.2 0,-0.912 -0.455,-1.556 -1.249,-1.874 l 1.428,-1.862 z"
             style="fill:#ffffff;fill-opacity:1;fill-rule:nonzero;stroke:none"
             id="path278" />
        </g>
        <g
           id="g280"
           transform="translate(64.0391,55.6523)">
          <path
             d="m 0,0 c -0.872,0.337 -1.398,0.446 -1.963,0.446 -0.435,0 -0.753,-0.217 -0.753,-0.515 0,-0.417 0.327,-0.525 1.556,-0.932 1.169,-0.396 1.675,-0.823 1.675,-1.853 0,-1.13 -0.832,-1.804 -2.131,-1.804 -0.802,0 -1.982,0.318 -2.785,0.803 l 0.516,1.07 c 0.882,-0.465 1.606,-0.674 2.199,-0.674 0.446,0 0.714,0.188 0.714,0.526 0,0.386 -0.218,0.525 -1.417,0.882 -1.1,0.327 -1.744,0.852 -1.744,1.873 0,1.011 0.743,1.754 2.062,1.754 0.723,0 1.506,-0.119 2.477,-0.545 z"
             style="fill:#ffffff;fill-opacity:1;fill-rule:nonzero;stroke:none"
             id="path282" />
        </g>
        <g
           id="g284"
           transform="translate(69.3574,55.4146)">
          <path
             d="M 0,0 C -0.089,0.248 -0.149,0.446 -0.188,0.615 -0.238,0.446 -0.298,0.248 -0.387,0 L -1.11,-1.953 h 1.843 z m -1.982,-4.331 h -1.487 l 2.348,6.045 H 0.753 L 3.092,-4.331 H 1.615 l -0.426,1.12 h -2.755 z"
             style="fill:#ffffff;fill-opacity:1;fill-rule:nonzero;stroke:none"
             id="path286" />
        </g>
        <g
           id="g288"
           transform="translate(74.103,51.0835)">
          <path
             d="M 0,0 V 6.045 H 1.377 V 1.269 H 4.163 V 0 Z"
             style="fill:#ffffff;fill-opacity:1;fill-rule:nonzero;stroke:none"
             id="path290" />
        </g>
        <g
           id="g292"
           transform="translate(85.3066,52.3125)">
          <path
             d="M 0,0 C 1.308,0 1.992,0.605 1.992,1.804 1.992,2.994 1.338,3.588 0,3.588 H -0.684 V 0 Z M 0,4.816 C 2.161,4.816 3.399,3.657 3.399,1.804 3.399,-0.06 2.131,-1.229 0,-1.229 h -2.061 v 6.045 z"
             style="fill:#ffffff;fill-opacity:1;fill-rule:nonzero;stroke:none"
             id="path294" />
        </g>
        <g
           id="g296"
           transform="translate(90.5581,51.0835)">
          <path
             d="M 0,0 V 6.045 H 4.331 V 4.787 H 1.377 V 3.598 H 3.915 V 2.389 H 1.377 V 1.239 H 4.41 V 0 Z"
             style="fill:#ffffff;fill-opacity:1;fill-rule:nonzero;stroke:none"
             id="path298" />
        </g>
        <g
           id="g300"
           transform="translate(100.9404,55.6523)">
          <path
             d="m 0,0 c -0.872,0.337 -1.398,0.446 -1.963,0.446 -0.435,0 -0.753,-0.217 -0.753,-0.515 0,-0.417 0.327,-0.525 1.556,-0.932 1.169,-0.396 1.676,-0.823 1.676,-1.853 0,-1.13 -0.833,-1.804 -2.132,-1.804 -0.802,0 -1.982,0.318 -2.784,0.803 l 0.515,1.07 c 0.883,-0.465 1.606,-0.674 2.199,-0.674 0.447,0 0.714,0.188 0.714,0.526 0,0.386 -0.218,0.525 -1.417,0.882 -1.1,0.327 -1.744,0.852 -1.744,1.873 0,1.011 0.743,1.754 2.062,1.754 0.723,0 1.506,-0.119 2.477,-0.545 z"
             style="fill:#ffffff;fill-opacity:1;fill-rule:nonzero;stroke:none"
             id="path302" />
        </g>
        <path
           d="m 103.417,57.129 h 1.377 v -6.045 h -1.377 z"
           style="fill:#ffffff;fill-opacity:1;fill-rule:nonzero;stroke:none"
           id="path304" />
        <g
           id="g306"
           transform="translate(112.4634,51.7676)">
          <path
             d="m 0,0 c -1.031,-0.545 -1.893,-0.773 -2.894,-0.773 -1.784,0 -2.904,1.11 -2.904,3.102 0,1.893 1.16,3.132 2.984,3.132 0.762,0 1.733,-0.169 2.537,-0.515 L -0.634,3.895 c -0.724,0.218 -1.358,0.347 -2.062,0.347 -1.05,0 -1.695,-0.743 -1.695,-1.913 0,-1.219 0.585,-1.863 1.557,-1.863 0.565,0 1.07,0.05 1.615,0.307 v 0.763 h -1.715 v 1.12 l 2.934,0 z"
             style="fill:#ffffff;fill-opacity:1;fill-rule:nonzero;stroke:none"
             id="path308" />
        </g>
        <g
           id="g310"
           transform="translate(118.7246,51.0835)">
          <path
             d="M 0,0 -2.845,3.766 V 0 h -1.377 v 6.045 h 1.249 L -0.119,2.24 V 6.045 H 1.258 L 1.258,0 Z"
             style="fill:#ffffff;fill-opacity:1;fill-rule:nonzero;stroke:none"
             id="path312" />
        </g>
        <g
           id="g314"
           transform="translate(129.1958,54.4141)">
          <path
             d="M 0,0 V -1.209 H -2.478 V -3.331 H -3.855 V 2.715 H 0.396 V 1.456 H -2.478 V 0 Z"
             style="fill:#ffffff;fill-opacity:1;fill-rule:nonzero;stroke:none"
             id="path316" />
        </g>
        <g
           id="g318"
           transform="translate(135.6846,54.0962)">
          <path
             d="m 0,0 c 0,1.249 -0.584,1.883 -1.596,1.883 -1.01,0 -1.595,-0.634 -1.595,-1.883 0,-1.219 0.585,-1.853 1.595,-1.853 C -0.584,-1.853 0,-1.219 0,0 m 1.407,0 c 0,-1.982 -1.13,-3.102 -3.003,-3.102 -1.883,0 -3.002,1.12 -3.002,3.102 0,2.012 1.119,3.132 3.002,3.132 1.873,0 3.003,-1.12 3.003,-3.132"
             style="fill:#ffffff;fill-opacity:1;fill-rule:nonzero;stroke:none"
             id="path320" />
        </g>
        <g
           id="g322"
           transform="translate(141.3706,53.9673)">
          <path
             d="M 0,0 C 0.783,0 1.219,0.347 1.219,0.962 1.219,1.586 0.783,1.953 0,1.953 H -1.05 V 0 Z M 2.766,-2.884 H 1.289 l -1.318,1.755 H -1.05 v -1.755 h -1.378 v 6.046 h 2.408 c 1.675,0 2.606,-0.793 2.606,-2.2 0,-0.912 -0.455,-1.556 -1.248,-1.874 l 1.428,-1.862 z"
             style="fill:#ffffff;fill-opacity:1;fill-rule:nonzero;stroke:none"
             id="path324" />
        </g>
        <g
           id="g326"
           transform="translate(148.9683,51.0835)">
          <path
             d="M 0,0 V 6.045 H 1.377 V 1.269 H 4.163 V 0 Z"
             style="fill:#ffffff;fill-opacity:1;fill-rule:nonzero;stroke:none"
             id="path328" />
        </g>
        <g
           id="g330"
           transform="translate(154.9326,51.0835)">
          <path
             d="M 0,0 V 6.045 H 4.33 V 4.787 H 1.377 V 3.598 H 3.915 V 2.389 H 1.377 V 1.239 H 4.41 V 0 Z"
             style="fill:#ffffff;fill-opacity:1;fill-rule:nonzero;stroke:none"
             id="path332" />
        </g>
        <g
           id="g334"
           transform="translate(164.394,55.4146)">
          <path
             d="M 0,0 C -0.09,0.248 -0.149,0.446 -0.188,0.615 -0.238,0.446 -0.298,0.248 -0.387,0 L -1.11,-1.953 h 1.843 z m -1.982,-4.331 h -1.487 l 2.348,6.045 H 0.753 L 3.092,-4.331 H 1.615 l -0.426,1.12 h -2.755 z"
             style="fill:#ffffff;fill-opacity:1;fill-rule:nonzero;stroke:none"
             id="path336" />
        </g>
        <g
           id="g338"
           transform="translate(171.5659,53.9673)">
          <path
             d="M 0,0 C 0.783,0 1.219,0.347 1.219,0.962 1.219,1.586 0.783,1.953 0,1.953 H -1.05 V 0 Z M 2.766,-2.884 H 1.289 l -1.318,1.755 H -1.05 v -1.755 h -1.378 v 6.046 h 2.408 c 1.675,0 2.607,-0.793 2.607,-2.2 0,-0.912 -0.456,-1.556 -1.249,-1.874 l 1.428,-1.862 z"
             style="fill:#ffffff;fill-opacity:1;fill-rule:nonzero;stroke:none"
             id="path340" />
        </g>
        <g
           id="g342"
           transform="translate(180.2544,51.0835)">
          <path
             d="M 0,0 -2.844,3.766 V 0 h -1.378 v 6.045 h 1.249 L -0.119,2.24 V 6.045 H 1.258 L 1.258,0 Z"
             style="fill:#ffffff;fill-opacity:1;fill-rule:nonzero;stroke:none"
             id="path344" />
        </g>
        <path
           d="m 183.83,57.129 h 1.377 v -6.045 h -1.377 z"
           style="fill:#ffffff;fill-opacity:1;fill-rule:nonzero;stroke:none"
           id="path346" />
        <g
           id="g348"
           transform="translate(191.7471,51.0835)">
          <path
             d="M 0,0 -2.844,3.766 V 0 h -1.378 v 6.045 h 1.249 L -0.119,2.24 V 6.045 H 1.258 L 1.258,0 Z"
             style="fill:#ffffff;fill-opacity:1;fill-rule:nonzero;stroke:none"
             id="path350" />
        </g>
        <g
           id="g352"
           transform="translate(200.6738,51.7676)">
          <path
             d="m 0,0 c -1.031,-0.545 -1.893,-0.773 -2.894,-0.773 -1.784,0 -2.904,1.11 -2.904,3.102 0,1.893 1.16,3.132 2.984,3.132 0.762,0 1.733,-0.169 2.537,-0.515 L -0.634,3.895 c -0.724,0.218 -1.358,0.347 -2.062,0.347 -1.05,0 -1.695,-0.743 -1.695,-1.913 0,-1.219 0.585,-1.863 1.557,-1.863 0.565,0 1.07,0.05 1.615,0.307 v 0.763 h -1.715 v 1.12 l 2.934,0 z"
             style="fill:#ffffff;fill-opacity:1;fill-rule:nonzero;stroke:none"
             id="path354" />
        </g>
        <g
           id="g356"
           transform="translate(51.2139,42.5249)">
          <path
             d="M 0,0 V -1.209 H -2.479 V -3.33 H -3.855 V 2.716 H 0.396 V 1.457 h -2.875 l 0,-1.457 z"
             style="fill:#ffffff;fill-opacity:1;fill-rule:nonzero;stroke:none"
             id="path358" />
        </g>
        <g
           id="g360"
           transform="translate(57.7026,42.2085)">
          <path
             d="m 0,0 c 0,1.248 -0.585,1.882 -1.596,1.882 -1.01,0 -1.595,-0.634 -1.595,-1.882 0,-1.22 0.585,-1.854 1.595,-1.854 C -0.585,-1.854 0,-1.22 0,0 m 1.407,0 c 0,-1.983 -1.13,-3.102 -3.003,-3.102 -1.883,0 -3.003,1.119 -3.003,3.102 0,2.011 1.12,3.131 3.003,3.131 1.873,0 3.003,-1.12 3.003,-3.131"
             style="fill:#ffffff;fill-opacity:1;fill-rule:nonzero;stroke:none"
             id="path362" />
        </g>
        <g
           id="g364"
           transform="translate(63.3892,42.0791)">
          <path
             d="M 0,0 C 0.783,0 1.219,0.347 1.219,0.962 1.219,1.585 0.783,1.953 0,1.953 H -1.05 V 0 Z M 2.766,-2.884 H 1.29 l -1.319,1.755 H -1.05 v -1.755 h -1.377 v 6.046 h 2.407 c 1.676,0 2.607,-0.793 2.607,-2.2 0,-0.912 -0.455,-1.557 -1.249,-1.874 l 1.428,-1.863 z"
             style="fill:#ffffff;fill-opacity:1;fill-rule:nonzero;stroke:none"
             id="path366" />
        </g>
        <g
           id="g368"
           transform="translate(76.1807,39.8101)">
          <path
             d="m 0,0 c -0.803,-0.486 -1.586,-0.704 -2.537,-0.704 -1.824,0 -2.944,1.11 -2.944,3.102 0,2.002 1.12,3.132 3.042,3.132 0.753,0 1.556,-0.188 2.221,-0.535 L -0.634,3.954 c -0.684,0.218 -1.23,0.327 -1.745,0.327 -1.11,0 -1.705,-0.635 -1.705,-1.883 0.01,-1.129 0.625,-1.854 1.606,-1.854 0.733,0 1.269,0.139 2.012,0.496 z"
             style="fill:#ffffff;fill-opacity:1;fill-rule:nonzero;stroke:none"
             id="path370" />
        </g>
        <g
           id="g372"
           transform="translate(82.1528,42.2085)">
          <path
             d="m 0,0 c 0,1.248 -0.584,1.882 -1.595,1.882 -1.011,0 -1.596,-0.634 -1.596,-1.882 0,-1.22 0.585,-1.854 1.596,-1.854 C -0.584,-1.854 0,-1.22 0,0 m 1.407,0 c 0,-1.983 -1.13,-3.102 -3.002,-3.102 -1.884,0 -3.003,1.119 -3.003,3.102 0,2.011 1.119,3.131 3.003,3.131 1.872,0 3.002,-1.12 3.002,-3.131"
             style="fill:#ffffff;fill-opacity:1;fill-rule:nonzero;stroke:none"
             id="path374" />
        </g>
        <g
           id="g376"
           transform="translate(90.9121,42.6738)">
          <path
             d="M 0,0 V 0.298 L -1.586,-3.479 H -2.468 L -4.035,0.298 V 0.03 l -0.108,-3.509 h -1.388 l 0.228,6.046 h 1.576 l 1.556,-3.647 c 0.069,-0.159 0.119,-0.317 0.149,-0.426 0.029,0.109 0.079,0.267 0.139,0.426 l 1.556,3.647 H 1.248 L 1.486,-3.479 H 0.089 Z"
             style="fill:#ffffff;fill-opacity:1;fill-rule:nonzero;stroke:none"
             id="path378" />
        </g>
        <g
           id="g380"
           transform="translate(97.0322,41.8906)">
          <path
             d="m 0,0 c 0.773,0 1.21,0.387 1.199,1.061 0,0.693 -0.455,1.08 -1.258,1.08 H -0.981 V 0 Z m -0.049,3.35 c 1.665,0 2.597,-0.823 2.597,-2.289 0,-1.437 -0.923,-2.25 -2.537,-2.25 H -0.981 V -2.695 H -2.358 V 3.35 Z"
             style="fill:#ffffff;fill-opacity:1;fill-rule:nonzero;stroke:none"
             id="path382" />
        </g>
        <g
           id="g384"
           transform="translate(106.7441,42.0298)">
          <path
             d="m 0,0 c 0,-1.943 -0.912,-2.923 -2.706,-2.923 -1.783,0 -2.695,0.98 -2.695,2.933 v 3.201 h 1.387 V 0.01 c 0,-1.12 0.457,-1.676 1.308,-1.676 0.873,0 1.329,0.556 1.329,1.676 V 3.211 H 0 Z"
             style="fill:#ffffff;fill-opacity:1;fill-rule:nonzero;stroke:none"
             id="path386" />
        </g>
        <g
           id="g388"
           transform="translate(111.5972,43.9819)">
          <path
             d="M 0,0 V -4.787 H -1.377 V 0 H -3.319 V 1.259 H 1.953 L 1.953,0 Z"
             style="fill:#ffffff;fill-opacity:1;fill-rule:nonzero;stroke:none"
             id="path390" />
        </g>
        <g
           id="g392"
           transform="translate(115.1826,39.1953)">
          <path
             d="M 0,0 V 6.045 H 4.33 V 4.787 H 1.377 V 3.598 H 3.914 V 2.389 H 1.377 V 1.239 H 4.41 V 0 Z"
             style="fill:#ffffff;fill-opacity:1;fill-rule:nonzero;stroke:none"
             id="path394" />
        </g>
        <g
           id="g396"
           transform="translate(123.96,42.0791)">
          <path
             d="M 0,0 C 0.783,0 1.219,0.347 1.219,0.962 1.219,1.585 0.783,1.953 0,1.953 H -1.05 V 0 Z M 2.766,-2.884 H 1.29 l -1.319,1.755 H -1.05 v -1.755 h -1.377 v 6.046 h 2.407 c 1.676,0 2.607,-0.793 2.607,-2.2 0,-0.912 -0.455,-1.557 -1.249,-1.874 l 1.428,-1.863 z"
             style="fill:#ffffff;fill-opacity:1;fill-rule:nonzero;stroke:none"
             id="path398" />
        </g>
        <g
           id="g400"
           transform="translate(135.5522,43.7642)">
          <path
             d="m 0,0 c -0.873,0.337 -1.398,0.446 -1.963,0.446 -0.435,0 -0.753,-0.218 -0.753,-0.515 0,-0.417 0.327,-0.526 1.556,-0.932 1.169,-0.396 1.675,-0.823 1.675,-1.853 0,-1.13 -0.833,-1.804 -2.131,-1.804 -0.802,0 -1.982,0.317 -2.785,0.803 l 0.516,1.07 c 0.882,-0.465 1.605,-0.673 2.199,-0.673 0.446,0 0.714,0.187 0.714,0.524 0,0.387 -0.218,0.526 -1.417,0.883 -1.1,0.326 -1.744,0.852 -1.744,1.872 0,1.012 0.743,1.755 2.061,1.755 0.724,0 1.507,-0.119 2.478,-0.546 z"
             style="fill:#ffffff;fill-opacity:1;fill-rule:nonzero;stroke:none"
             id="path402" />
        </g>
        <g
           id="g404"
           transform="translate(143.2793,39.8101)">
          <path
             d="m 0,0 c -0.803,-0.486 -1.586,-0.704 -2.537,-0.704 -1.824,0 -2.944,1.11 -2.944,3.102 0,2.002 1.12,3.132 3.043,3.132 0.752,0 1.556,-0.188 2.22,-0.535 L -0.634,3.954 c -0.684,0.218 -1.229,0.327 -1.744,0.327 -1.111,0 -1.706,-0.635 -1.706,-1.883 0.01,-1.129 0.625,-1.854 1.606,-1.854 0.734,0 1.269,0.139 2.012,0.496 z"
             style="fill:#ffffff;fill-opacity:1;fill-rule:nonzero;stroke:none"
             id="path406" />
        </g>
        <path
           d="m 145.031,45.241 h 1.377 v -6.045 h -1.377 z"
           style="fill:#ffffff;fill-opacity:1;fill-rule:nonzero;stroke:none"
           id="path408" />
        <g
           id="g410"
           transform="translate(148.7261,39.1953)">
          <path
             d="M 0,0 V 6.045 H 4.331 V 4.787 H 1.377 V 3.598 H 3.915 V 2.389 H 1.377 V 1.239 H 4.41 V 0 Z"
             style="fill:#ffffff;fill-opacity:1;fill-rule:nonzero;stroke:none"
             id="path412" />
        </g>
        <g
           id="g414"
           transform="translate(159.2983,39.1953)">
          <path
             d="M 0,0 -2.845,3.766 V 0 h -1.377 v 6.045 h 1.249 L -0.119,2.24 V 6.045 H 1.258 L 1.258,0 Z"
             style="fill:#ffffff;fill-opacity:1;fill-rule:nonzero;stroke:none"
             id="path416" />
        </g>
        <g
           id="g418"
           transform="translate(167.9092,39.8101)">
          <path
             d="m 0,0 c -0.803,-0.486 -1.586,-0.704 -2.537,-0.704 -1.824,0 -2.944,1.11 -2.944,3.102 0,2.002 1.12,3.132 3.042,3.132 0.753,0 1.556,-0.188 2.221,-0.535 L -0.634,3.954 c -0.684,0.218 -1.23,0.327 -1.745,0.327 -1.11,0 -1.705,-0.635 -1.705,-1.883 0.01,-1.129 0.625,-1.854 1.606,-1.854 0.733,0 1.269,0.139 2.012,0.496 z"
             style="fill:#ffffff;fill-opacity:1;fill-rule:nonzero;stroke:none"
             id="path420" />
        </g>
        <g
           id="g422"
           transform="translate(169.6597,39.1953)">
          <path
             d="M 0,0 V 6.045 H 4.331 V 4.787 H 1.377 V 3.598 H 3.915 V 2.389 H 1.377 V 1.239 H 4.41 V 0 Z"
             style="fill:#ffffff;fill-opacity:1;fill-rule:nonzero;stroke:none"
             id="path424" />
        </g>
        <g
           id="g426"
           transform="translate(347.8057,80.3379)">
          <path
             d="M 0,0 H -7.656 L 0,7.656 Z m 6.772,11.699 h -6.79 v -0.03 H -7.793 L -15.548,3.893 V -2.56 c 0,-0.75 0.608,-1.357 1.357,-1.357 h 6.411 0.045 7.717 v -6.356 c 0,-0.749 0.607,-1.357 1.356,-1.357 h 5.383 c 0.592,0 1.072,0.48 1.072,1.073 v 6.64 0.103 7.697 0.015 6.78 c 0,0.564 -0.456,1.021 -1.021,1.021 m 54.865,-15.45 c 0,-0.01 -10e-4,-0.019 -10e-4,-0.027 0,-0.01 10e-4,-0.018 10e-4,-0.028 h -0.003 c -0.03,-4.274 -3.486,-7.731 -7.757,-7.758 v -0.003 h -7.812 v 0.004 c -4.277,0.042 -7.733,3.521 -7.733,7.812 h 6.922 c -3.877,0.439 -6.893,3.717 -6.92,7.708 h -0.002 c 0,0.009 10e-4,0.018 10e-4,0.027 0,0.009 -10e-4,0.017 -10e-4,0.026 h 0.002 c 0.029,4.266 3.472,7.717 7.731,7.759 v 0.004 h 7.76 0.052 1.067 c 3.697,0 6.693,-2.998 6.693,-6.697 0,-0.618 -0.501,-1.119 -1.118,-1.119 h -5.811 c 3.88,-0.437 6.898,-3.715 6.926,-7.708 z M -17.968,-5.08 v -5.145 c 0,-0.728 -0.59,-1.318 -1.317,-1.318 h -6.428 -0.066 -7.704 -0.04 -6.415 c -0.75,0 -1.356,0.607 -1.356,1.357 v 6.381 0.077 7.661 0.078 6.386 c 0,0.747 0.605,1.352 1.351,1.352 h 5.512 c 0.524,0 0.948,-0.424 0.948,-0.948 V 4.011 3.933 -3.728 h 7.704 0.066 6.394 c 0.746,0 1.351,-0.605 1.351,-1.352 m 38.412,9.037 v -7.708 h 7.657 0.077 6.737 c 0.551,0 0.997,-0.447 0.997,-0.999 0,-3.765 -3.051,-6.817 -6.813,-6.817 h -0.921 -0.077 -7.734 v 0.004 c -4.256,0.042 -7.695,3.486 -7.731,7.745 h -0.003 v 7.816 h 0.002 c 0.022,4.272 3.468,7.729 7.732,7.771 v 0.004 h 7.734 0.077 1.042 c 3.696,0 6.692,-2.998 6.692,-6.697 0,-0.618 -0.501,-1.119 -1.118,-1.119 h -6.616 -0.077 z m -110.59,-12.96 h 2.623 v -2.088 c -2.205,0.778 -3.95,2.513 -4.743,4.711 h 2.12 z m 20.732,19.588 V 4.011 3.933 -3.805 h -0.003 c -0.042,-4.258 -3.485,-7.699 -7.742,-7.735 v -0.003 H -84.9 v 2.54 h 2.623 V -6.38 H -84.9 v -2.623 h -2.623 v 2.623 h -2.623 v 2.623 h 2.623 v 2.623 h -2.623 v -2.623 h -2.595 v 5.246 h 2.595 v 2.623 h -2.595 v 5.232 h 2.595 V 6.735 h 2.623 v 2.624 h -2.623 v 2.39 h 4.098 c 0.618,0 1.119,-0.501 1.119,-1.119 V 4.011 3.933 -3.728 h 7.704 v 7.661 0.078 6.74 c 0,0.551 0.447,0.998 0.997,0.998 h 5.651 c 0.643,0 1.163,-0.521 1.163,-1.164 m 17.888,-14.336 h -7.657 v 7.708 h 7.657 z m 0.078,15.52 v 0.004 h -0.078 -7.657 -0.077 -6.378 c -0.748,0 -1.356,-0.608 -1.356,-1.357 V 3.998 3.957 -3.751 -3.818 -10.249 c 0,-0.728 0.59,-1.318 1.318,-1.318 h 6.416 0.077 7.657 0.078 v 0.004 c 4.255,0.042 7.695,3.486 7.73,7.745 h 0.004 v 7.816 h -0.003 c -0.022,4.272 -3.467,7.729 -7.731,7.771"
             style="fill:#000000;fill-opacity:1;fill-rule:nonzero;stroke:none"
             id="path428" />
        </g>
        <path
           d="M 247.203,87.083 H 244.58 V 84.46 h 2.623 z m 0,-5.256 h 2.623 v 2.623 h -2.623 z m 5.239,-13.116 h 2.623 v 2.623 h -2.623 z m 0,23.594 v -2.608 -0.015 -2.609 h 2.623 v 2.609 0.015 2.608 z m 0,-18.347 h 2.623 v 2.623 h -2.623 z m -5.239,-0.022 h 2.623 v 2.623 h -2.623 z m 2.616,2.645 h 2.623 v 2.624 h -2.623 z m 2.623,7.879 h 2.623 v -2.623 h -2.623 z"
           style="fill:#000000;fill-opacity:1;fill-rule:nonzero;stroke:none"
           id="path430" />
      </g>
    </g>
    <g
       id="g432">
      <g
         id="g434"
         clip-path="url(#clipPath438)">
        <path
           d="M 255.85,66.617 H 243.788 V 93.772 H 255.85 Z"
           style="fill:#000000;fill-opacity:1;fill-rule:nonzero;stroke:none"
           id="path440" />
      </g>
    </g>
    <g
       id="g442">
      <g
         id="g444"
         clip-path="url(#clipPath448)">
        <g
           id="g450"
           transform="translate(242.4121,53.9185)">
          <path
             d="m 0,0 c 0,-1.943 -0.912,-2.924 -2.706,-2.924 -1.784,0 -2.695,0.981 -2.695,2.934 v 3.2 h 1.387 v -3.2 c 0,-1.12 0.457,-1.676 1.308,-1.676 0.873,0 1.329,0.556 1.329,1.676 v 3.2 L 0,3.21 Z"
             style="fill:#000000;fill-opacity:1;fill-rule:nonzero;stroke:none"
             id="path452" />
        </g>
        <g
           id="g454"
           transform="translate(248.7222,51.0835)">
          <path
             d="M 0,0 -2.845,3.766 V 0 h -1.377 v 6.045 h 1.249 L -0.119,2.24 V 6.045 H 1.258 L 1.258,0 Z"
             style="fill:#000000;fill-opacity:1;fill-rule:nonzero;stroke:none"
             id="path456" />
        </g>
        <path
           d="m 252.298,57.129 h 1.377 v -6.045 h -1.377 z"
           style="fill:#000000;fill-opacity:1;fill-rule:nonzero;stroke:none"
           id="path458" />
        <g
           id="g460"
           transform="translate(257.6592,51.0835)">
          <path
             d="m 0,0 -2.369,6.045 h 1.536 L 0.574,2.052 C 0.644,1.834 0.713,1.605 0.773,1.388 0.832,1.605 0.901,1.834 0.97,2.052 L 2.447,6.045 H 3.914 L 1.546,0 Z"
             style="fill:#000000;fill-opacity:1;fill-rule:nonzero;stroke:none"
             id="path462" />
        </g>
        <g
           id="g464"
           transform="translate(263.1763,51.0835)">
          <path
             d="M 0,0 V 6.045 H 4.33 V 4.787 H 1.377 V 3.598 H 3.914 V 2.389 H 1.377 V 1.239 H 4.41 V 0 Z"
             style="fill:#000000;fill-opacity:1;fill-rule:nonzero;stroke:none"
             id="path466" />
        </g>
        <g
           id="g468"
           transform="translate(271.9536,53.9673)">
          <path
             d="M 0,0 C 0.783,0 1.219,0.347 1.219,0.962 1.219,1.586 0.783,1.953 0,1.953 H -1.05 V 0 Z M 2.766,-2.884 H 1.29 l -1.319,1.755 H -1.05 v -1.755 h -1.377 v 6.046 h 2.407 c 1.676,0 2.607,-0.793 2.607,-2.2 0,-0.912 -0.455,-1.556 -1.249,-1.874 l 1.428,-1.862 z"
             style="fill:#000000;fill-opacity:1;fill-rule:nonzero;stroke:none"
             id="path470" />
        </g>
        <g
           id="g472"
           transform="translate(280.3765,55.6523)">
          <path
             d="m 0,0 c -0.873,0.337 -1.398,0.446 -1.963,0.446 -0.435,0 -0.753,-0.217 -0.753,-0.515 0,-0.417 0.327,-0.525 1.556,-0.932 1.169,-0.396 1.675,-0.823 1.675,-1.853 0,-1.13 -0.833,-1.804 -2.131,-1.804 -0.802,0 -1.982,0.318 -2.785,0.803 l 0.516,1.07 c 0.882,-0.465 1.605,-0.674 2.199,-0.674 0.446,0 0.714,0.188 0.714,0.526 0,0.386 -0.218,0.525 -1.417,0.882 -1.1,0.327 -1.744,0.852 -1.744,1.873 0,1.011 0.743,1.754 2.061,1.754 0.724,0 1.507,-0.119 2.478,-0.545 z"
             style="fill:#000000;fill-opacity:1;fill-rule:nonzero;stroke:none"
             id="path474" />
        </g>
        <g
           id="g476"
           transform="translate(285.6948,55.4146)">
          <path
             d="M 0,0 C -0.089,0.248 -0.149,0.446 -0.188,0.615 -0.238,0.446 -0.298,0.248 -0.387,0 L -1.11,-1.953 h 1.842 z m -1.982,-4.331 h -1.487 l 2.348,6.045 H 0.753 L 3.092,-4.331 H 1.615 l -0.426,1.12 h -2.755 z"
             style="fill:#000000;fill-opacity:1;fill-rule:nonzero;stroke:none"
             id="path478" />
        </g>
        <g
           id="g480"
           transform="translate(290.4399,51.0835)">
          <path
             d="M 0,0 V 6.045 H 1.377 V 1.269 H 4.163 V 0 Z"
             style="fill:#000000;fill-opacity:1;fill-rule:nonzero;stroke:none"
             id="path482" />
        </g>
        <g
           id="g484"
           transform="translate(301.644,52.3125)">
          <path
             d="M 0,0 C 1.308,0 1.992,0.605 1.992,1.804 1.992,2.994 1.338,3.588 0,3.588 H -0.684 V 0 Z M 0,4.816 C 2.161,4.816 3.399,3.657 3.399,1.804 3.399,-0.06 2.131,-1.229 0,-1.229 h -2.061 v 6.045 z"
             style="fill:#000000;fill-opacity:1;fill-rule:nonzero;stroke:none"
             id="path486" />
        </g>
        <g
           id="g488"
           transform="translate(306.8955,51.0835)">
          <path
             d="M 0,0 V 6.045 H 4.33 V 4.787 H 1.377 V 3.598 H 3.914 V 2.389 H 1.377 V 1.239 H 4.41 V 0 Z"
             style="fill:#000000;fill-opacity:1;fill-rule:nonzero;stroke:none"
             id="path490" />
        </g>
        <g
           id="g492"
           transform="translate(317.2783,55.6523)">
          <path
             d="m 0,0 c -0.873,0.337 -1.398,0.446 -1.963,0.446 -0.436,0 -0.754,-0.217 -0.754,-0.515 0,-0.417 0.327,-0.525 1.557,-0.932 1.169,-0.396 1.675,-0.823 1.675,-1.853 0,-1.13 -0.833,-1.804 -2.132,-1.804 -0.802,0 -1.982,0.318 -2.784,0.803 l 0.515,1.07 c 0.883,-0.465 1.606,-0.674 2.199,-0.674 0.447,0 0.715,0.188 0.715,0.526 0,0.386 -0.218,0.525 -1.418,0.882 -1.099,0.327 -1.743,0.852 -1.743,1.873 0,1.011 0.742,1.754 2.061,1.754 0.723,0 1.507,-0.119 2.477,-0.545 z"
             style="fill:#000000;fill-opacity:1;fill-rule:nonzero;stroke:none"
             id="path494" />
        </g>
        <path
           d="m 319.754,57.129 h 1.377 v -6.045 h -1.377 z"
           style="fill:#000000;fill-opacity:1;fill-rule:nonzero;stroke:none"
           id="path496" />
        <g
           id="g498"
           transform="translate(328.8008,51.7676)">
          <path
             d="m 0,0 c -1.031,-0.545 -1.893,-0.773 -2.895,-0.773 -1.783,0 -2.903,1.11 -2.903,3.102 0,1.893 1.16,3.132 2.984,3.132 0.762,0 1.734,-0.169 2.537,-0.515 L -0.635,3.895 c -0.722,0.218 -1.357,0.347 -2.06,0.347 -1.051,0 -1.696,-0.743 -1.696,-1.913 0,-1.219 0.585,-1.863 1.557,-1.863 0.564,0 1.069,0.05 1.615,0.307 v 0.763 h -1.715 v 1.12 l 2.934,0 z"
             style="fill:#000000;fill-opacity:1;fill-rule:nonzero;stroke:none"
             id="path500" />
        </g>
        <g
           id="g502"
           transform="translate(335.0615,51.0835)">
          <path
             d="M 0,0 -2.845,3.766 V 0 h -1.377 v 6.045 h 1.249 L -0.119,2.24 V 6.045 H 1.259 L 1.259,0 Z"
             style="fill:#000000;fill-opacity:1;fill-rule:nonzero;stroke:none"
             id="path504" />
        </g>
        <g
           id="g506"
           transform="translate(345.5332,54.4141)">
          <path
             d="M 0,0 V -1.209 H -2.479 V -3.331 H -3.855 V 2.715 H 0.396 V 1.456 h -2.875 l 0,-1.456 z"
             style="fill:#000000;fill-opacity:1;fill-rule:nonzero;stroke:none"
             id="path508" />
        </g>
        <g
           id="g510"
           transform="translate(352.0215,54.0962)">
          <path
             d="M 0,0 C 0,1.249 -0.584,1.883 -1.595,1.883 -2.606,1.883 -3.19,1.249 -3.19,0 c 0,-1.219 0.584,-1.853 1.595,-1.853 C -0.584,-1.853 0,-1.219 0,0 m 1.407,0 c 0,-1.982 -1.13,-3.102 -3.002,-3.102 -1.884,0 -3.003,1.12 -3.003,3.102 0,2.012 1.119,3.132 3.003,3.132 1.872,0 3.002,-1.12 3.002,-3.132"
             style="fill:#000000;fill-opacity:1;fill-rule:nonzero;stroke:none"
             id="path512" />
        </g>
        <g
           id="g514"
           transform="translate(357.708,53.9673)">
          <path
             d="M 0,0 C 0.783,0 1.219,0.347 1.219,0.962 1.219,1.586 0.783,1.953 0,1.953 H -1.051 V 0 Z M 2.766,-2.884 H 1.289 l -1.318,1.755 h -1.022 v -1.755 h -1.377 v 6.046 h 2.408 c 1.675,0 2.607,-0.793 2.607,-2.2 0,-0.912 -0.456,-1.556 -1.249,-1.874 l 1.428,-1.862 z"
             style="fill:#000000;fill-opacity:1;fill-rule:nonzero;stroke:none"
             id="path516" />
        </g>
        <g
           id="g518"
           transform="translate(365.3057,51.0835)">
          <path
             d="M 0,0 V 6.045 H 1.377 V 1.269 H 4.163 V 0 Z"
             style="fill:#000000;fill-opacity:1;fill-rule:nonzero;stroke:none"
             id="path520" />
        </g>
        <g
           id="g522"
           transform="translate(371.2695,51.0835)">
          <path
             d="M 0,0 V 6.045 H 4.331 V 4.787 H 1.378 V 3.598 H 3.915 V 2.389 H 1.378 V 1.239 H 4.41 V 0 Z"
             style="fill:#000000;fill-opacity:1;fill-rule:nonzero;stroke:none"
             id="path524" />
        </g>
        <g
           id="g526"
           transform="translate(380.7314,55.4146)">
          <path
             d="M 0,0 C -0.09,0.248 -0.149,0.446 -0.188,0.615 -0.238,0.446 -0.298,0.248 -0.387,0 L -1.11,-1.953 H 0.732 Z M -1.982,-4.331 H -3.47 l 2.349,6.045 H 0.753 L 3.092,-4.331 H 1.615 l -0.427,1.12 h -2.754 z"
             style="fill:#000000;fill-opacity:1;fill-rule:nonzero;stroke:none"
             id="path528" />
        </g>
        <g
           id="g530"
           transform="translate(387.9033,53.9673)">
          <path
             d="M 0,0 C 0.783,0 1.219,0.347 1.219,0.962 1.219,1.586 0.783,1.953 0,1.953 H -1.051 V 0 Z M 2.766,-2.884 H 1.289 l -1.318,1.755 h -1.022 v -1.755 h -1.377 v 6.046 h 2.408 c 1.675,0 2.607,-0.793 2.607,-2.2 0,-0.912 -0.456,-1.556 -1.249,-1.874 l 1.428,-1.862 z"
             style="fill:#000000;fill-opacity:1;fill-rule:nonzero;stroke:none"
             id="path532" />
        </g>
        <g
           id="g534"
           transform="translate(396.5918,51.0835)">
          <path
             d="M 0,0 -2.845,3.766 V 0 h -1.377 v 6.045 h 1.249 L -0.119,2.24 V 6.045 H 1.258 L 1.258,0 Z"
             style="fill:#000000;fill-opacity:1;fill-rule:nonzero;stroke:none"
             id="path536" />
        </g>
        <path
           d="m 400.167,57.129 h 1.377 v -6.045 h -1.377 z"
           style="fill:#000000;fill-opacity:1;fill-rule:nonzero;stroke:none"
           id="path538" />
        <g
           id="g540"
           transform="translate(408.084,51.0835)">
          <path
             d="M 0,0 -2.844,3.766 V 0 h -1.378 v 6.045 h 1.249 L -0.118,2.24 V 6.045 H 1.259 L 1.259,0 Z"
             style="fill:#000000;fill-opacity:1;fill-rule:nonzero;stroke:none"
             id="path542" />
        </g>
        <g
           id="g544"
           transform="translate(417.0107,51.7676)">
          <path
             d="m 0,0 c -1.03,-0.545 -1.893,-0.773 -2.894,-0.773 -1.784,0 -2.903,1.11 -2.903,3.102 0,1.893 1.159,3.132 2.983,3.132 0.762,0 1.734,-0.169 2.537,-0.515 L -0.634,3.895 c -0.723,0.218 -1.357,0.347 -2.061,0.347 -1.05,0 -1.695,-0.743 -1.695,-1.913 0,-1.219 0.584,-1.863 1.556,-1.863 0.565,0 1.07,0.05 1.615,0.307 v 0.763 h -1.715 v 1.12 l 2.934,0 z"
             style="fill:#000000;fill-opacity:1;fill-rule:nonzero;stroke:none"
             id="path546" />
        </g>
        <g
           id="g548"
           transform="translate(267.5508,42.5249)">
          <path
             d="M 0,0 V -1.209 H -2.478 V -3.33 H -3.855 V 2.716 H 0.396 V 1.457 H -2.478 V 0 Z"
             style="fill:#000000;fill-opacity:1;fill-rule:nonzero;stroke:none"
             id="path550" />
        </g>
        <g
           id="g552"
           transform="translate(274.0396,42.2085)">
          <path
             d="m 0,0 c 0,1.248 -0.584,1.882 -1.595,1.882 -1.011,0 -1.596,-0.634 -1.596,-1.882 0,-1.22 0.585,-1.854 1.596,-1.854 C -0.584,-1.854 0,-1.22 0,0 m 1.407,0 c 0,-1.983 -1.13,-3.102 -3.002,-3.102 -1.884,0 -3.003,1.119 -3.003,3.102 0,2.011 1.119,3.131 3.003,3.131 1.872,0 3.002,-1.12 3.002,-3.131"
             style="fill:#000000;fill-opacity:1;fill-rule:nonzero;stroke:none"
             id="path554" />
        </g>
        <g
           id="g556"
           transform="translate(279.7266,42.0791)">
          <path
             d="M 0,0 C 0.783,0 1.219,0.347 1.219,0.962 1.219,1.585 0.783,1.953 0,1.953 H -1.05 V 0 Z M 2.766,-2.884 H 1.289 l -1.318,1.755 H -1.05 v -1.755 h -1.377 v 6.046 h 2.407 c 1.676,0 2.607,-0.793 2.607,-2.2 0,-0.912 -0.456,-1.557 -1.249,-1.874 l 1.428,-1.863 z"
             style="fill:#000000;fill-opacity:1;fill-rule:nonzero;stroke:none"
             id="path558" />
        </g>
        <g
           id="g560"
           transform="translate(292.5181,39.8101)">
          <path
             d="m 0,0 c -0.803,-0.486 -1.586,-0.704 -2.537,-0.704 -1.824,0 -2.944,1.11 -2.944,3.102 0,2.002 1.12,3.132 3.042,3.132 0.753,0 1.556,-0.188 2.22,-0.535 L -0.634,3.954 c -0.684,0.218 -1.23,0.327 -1.745,0.327 -1.11,0 -1.705,-0.635 -1.705,-1.883 0.01,-1.129 0.625,-1.854 1.605,-1.854 0.734,0 1.269,0.139 2.013,0.496 z"
             style="fill:#000000;fill-opacity:1;fill-rule:nonzero;stroke:none"
             id="path562" />
        </g>
        <g
           id="g564"
           transform="translate(298.4902,42.2085)">
          <path
             d="m 0,0 c 0,1.248 -0.584,1.882 -1.596,1.882 -1.01,0 -1.595,-0.634 -1.595,-1.882 0,-1.22 0.585,-1.854 1.595,-1.854 C -0.584,-1.854 0,-1.22 0,0 m 1.407,0 c 0,-1.983 -1.13,-3.102 -3.003,-3.102 -1.883,0 -3.002,1.119 -3.002,3.102 0,2.011 1.119,3.131 3.002,3.131 1.873,0 3.003,-1.12 3.003,-3.131"
             style="fill:#000000;fill-opacity:1;fill-rule:nonzero;stroke:none"
             id="path566" />
        </g>
        <g
           id="g568"
           transform="translate(307.249,42.6738)">
          <path
             d="M 0,0 V 0.298 L -1.586,-3.479 H -2.468 L -4.034,0.298 V 0.03 L -4.143,-3.479 H -5.53 l 0.227,6.046 h 1.576 L -2.17,-1.08 c 0.069,-0.159 0.118,-0.317 0.149,-0.426 0.028,0.109 0.078,0.267 0.138,0.426 l 1.556,3.647 H 1.248 L 1.486,-3.479 H 0.089 Z"
             style="fill:#000000;fill-opacity:1;fill-rule:nonzero;stroke:none"
             id="path570" />
        </g>
        <g
           id="g572"
           transform="translate(313.3701,41.8906)">
          <path
             d="m 0,0 c 0.772,0 1.209,0.387 1.199,1.061 0,0.693 -0.456,1.08 -1.259,1.08 h -0.921 l 0,-2.141 z m -0.05,3.35 c 1.666,0 2.597,-0.823 2.597,-2.289 0,-1.437 -0.922,-2.25 -2.537,-2.25 H -0.981 V -2.695 H -2.358 V 3.35 Z"
             style="fill:#000000;fill-opacity:1;fill-rule:nonzero;stroke:none"
             id="path574" />
        </g>
        <g
           id="g576"
           transform="translate(323.082,42.0298)">
          <path
             d="m 0,0 c 0,-1.943 -0.912,-2.923 -2.706,-2.923 -1.784,0 -2.695,0.98 -2.695,2.933 v 3.201 h 1.387 V 0.01 c 0,-1.12 0.456,-1.676 1.308,-1.676 0.872,0 1.328,0.556 1.328,1.676 V 3.211 H 0 Z"
             style="fill:#000000;fill-opacity:1;fill-rule:nonzero;stroke:none"
             id="path578" />
        </g>
        <g
           id="g580"
           transform="translate(327.9346,43.9819)">
          <path
             d="M 0,0 V -4.787 H -1.377 V 0 H -3.319 V 1.259 H 1.952 V 0 Z"
             style="fill:#000000;fill-opacity:1;fill-rule:nonzero;stroke:none"
             id="path582" />
        </g>
        <g
           id="g584"
           transform="translate(331.5195,39.1953)">
          <path
             d="M 0,0 V 6.045 H 4.331 V 4.787 H 1.378 V 3.598 H 3.915 V 2.389 H 1.378 V 1.239 H 4.41 V 0 Z"
             style="fill:#000000;fill-opacity:1;fill-rule:nonzero;stroke:none"
             id="path586" />
        </g>
        <g
           id="g588"
           transform="translate(340.2979,42.0791)">
          <path
             d="M 0,0 C 0.783,0 1.219,0.347 1.219,0.962 1.219,1.585 0.783,1.953 0,1.953 H -1.051 V 0 Z M 2.766,-2.884 H 1.289 l -1.318,1.755 h -1.022 v -1.755 h -1.377 v 6.046 h 2.407 c 1.676,0 2.607,-0.793 2.607,-2.2 0,-0.912 -0.455,-1.557 -1.248,-1.874 l 1.428,-1.863 z"
             style="fill:#000000;fill-opacity:1;fill-rule:nonzero;stroke:none"
             id="path590" />
        </g>
        <g
           id="g592"
           transform="translate(351.8896,43.7642)">
          <path
             d="m 0,0 c -0.872,0.337 -1.398,0.446 -1.963,0.446 -0.435,0 -0.754,-0.218 -0.754,-0.515 0,-0.417 0.327,-0.526 1.557,-0.932 1.169,-0.396 1.675,-0.823 1.675,-1.853 0,-1.13 -0.832,-1.804 -2.131,-1.804 -0.802,0 -1.982,0.317 -2.785,0.803 l 0.515,1.07 c 0.883,-0.465 1.607,-0.673 2.2,-0.673 0.446,0 0.714,0.187 0.714,0.524 0,0.387 -0.218,0.526 -1.418,0.883 -1.099,0.326 -1.743,0.852 -1.743,1.872 0,1.012 0.743,1.755 2.062,1.755 0.722,0 1.506,-0.119 2.476,-0.546 z"
             style="fill:#000000;fill-opacity:1;fill-rule:nonzero;stroke:none"
             id="path594" />
        </g>
        <g
           id="g596"
           transform="translate(359.6172,39.8101)">
          <path
             d="m 0,0 c -0.804,-0.486 -1.587,-0.704 -2.537,-0.704 -1.824,0 -2.944,1.11 -2.944,3.102 0,2.002 1.12,3.132 3.042,3.132 0.753,0 1.556,-0.188 2.22,-0.535 L -0.635,3.954 c -0.683,0.218 -1.229,0.327 -1.744,0.327 -1.11,0 -1.705,-0.635 -1.705,-1.883 0.01,-1.129 0.624,-1.854 1.605,-1.854 0.734,0 1.269,0.139 2.012,0.496 z"
             style="fill:#000000;fill-opacity:1;fill-rule:nonzero;stroke:none"
             id="path598" />
        </g>
        <path
           d="m 361.368,45.241 h 1.378 v -6.045 h -1.378 z"
           style="fill:#000000;fill-opacity:1;fill-rule:nonzero;stroke:none"
           id="path600" />
        <g
           id="g602"
           transform="translate(365.0635,39.1953)">
          <path
             d="M 0,0 V 6.045 H 4.33 V 4.787 H 1.377 V 3.598 H 3.914 V 2.389 H 1.377 V 1.239 H 4.41 V 0 Z"
             style="fill:#000000;fill-opacity:1;fill-rule:nonzero;stroke:none"
             id="path604" />
        </g>
        <g
           id="g606"
           transform="translate(375.6357,39.1953)">
          <path
             d="M 0,0 -2.845,3.766 V 0 h -1.377 v 6.045 h 1.249 L -0.119,2.24 V 6.045 H 1.258 L 1.258,0 Z"
             style="fill:#000000;fill-opacity:1;fill-rule:nonzero;stroke:none"
             id="path608" />
        </g>
        <g
           id="g610"
           transform="translate(384.2461,39.8101)">
          <path
             d="m 0,0 c -0.803,-0.486 -1.586,-0.704 -2.537,-0.704 -1.824,0 -2.943,1.11 -2.943,3.102 0,2.002 1.119,3.132 3.042,3.132 0.752,0 1.555,-0.188 2.22,-0.535 L -0.634,3.954 c -0.684,0.218 -1.229,0.327 -1.745,0.327 -1.11,0 -1.705,-0.635 -1.705,-1.883 0.011,-1.129 0.625,-1.854 1.606,-1.854 0.734,0 1.269,0.139 2.012,0.496 z"
             style="fill:#000000;fill-opacity:1;fill-rule:nonzero;stroke:none"
             id="path612" />
        </g>
        <g
           id="g614"
           transform="translate(385.9971,39.1953)">
          <path
             d="M 0,0 V 6.045 H 4.33 V 4.787 H 1.377 V 3.598 H 3.914 V 2.389 H 1.377 V 1.239 H 4.41 V 0 Z"
             style="fill:#000000;fill-opacity:1;fill-rule:nonzero;stroke:none"
             id="path616" />
        </g>
      </g>
    </g>
  </g>
</svg>
