<?xml version="1.0" encoding="UTF-8" standalone="no"?>
<!-- Created with Inkscape (http://www.inkscape.org/) -->

<svg
   version="1.1"
   id="svg2"
   width="526.67731"
   height="57.956669"
   viewBox="0 0 526.67731 57.956669"
   sodipodi:docname="UDL4CS Logo-horizontal.ai"
   xmlns:inkscape="http://www.inkscape.org/namespaces/inkscape"
   xmlns:sodipodi="http://sodipodi.sourceforge.net/DTD/sodipodi-0.dtd"
   xmlns="http://www.w3.org/2000/svg"
   xmlns:svg="http://www.w3.org/2000/svg">
  <defs
     id="defs6">
    <linearGradient
       x1="0"
       y1="0"
       x2="1"
       y2="0"
       gradientUnits="userSpaceOnUse"
       gradientTransform="matrix(154.37758,0,0,-154.37758,18.465633,21.655415)"
       spreadMethod="pad"
       id="linearGradient30">
      <stop
         style="stop-opacity:1;stop-color:#cc2952"
         offset="0"
         id="stop22" />
      <stop
         style="stop-opacity:1;stop-color:#151b71"
         offset="0.5"
         id="stop24" />
      <stop
         style="stop-opacity:1;stop-color:#0b1a73"
         offset="0.580832"
         id="stop26" />
      <stop
         style="stop-opacity:1;stop-color:#007acc"
         offset="1"
         id="stop28" />
    </linearGradient>
    <clipPath
       clipPathUnits="userSpaceOnUse"
       id="clipPath40">
      <path
         d="M 0,43.468 H 395.008 V 0 H 0 Z"
         id="path38" />
    </clipPath>
    <clipPath
       clipPathUnits="userSpaceOnUse"
       id="clipPath50">
      <path
         d="m 15.843,33.552 v -2.609 -0.015 -2.609 h 2.623 v 2.609 0.015 2.609 z M 7.98,25.707 h 2.624 v 2.624 H 7.98 Z m 7.863,-2.624 h 2.624 v 2.624 h -2.624 z m -5.239,-0.01 h 2.623 v 2.624 h -2.623 z m 2.615,-5.246 h 2.624 v 2.623 h -2.624 z m 2.624,-2.623 h 2.624 v 2.624 h -2.624 z m -5.239,-0.022 h 2.623 v 2.623 h -2.623 z m 5.239,-5.224 h 2.624 v 2.623 h -2.624 z"
         id="path48" />
    </clipPath>
    <clipPath
       clipPathUnits="userSpaceOnUse"
       id="clipPath60">
      <path
         d="M 0,43.468 H 395.008 V 0 H 0 Z"
         id="path58" />
    </clipPath>
  </defs>
  <sodipodi:namedview
     id="namedview4"
     pagecolor="#ffffff"
     bordercolor="#000000"
     borderopacity="0.25"
     inkscape:showpageshadow="2"
     inkscape:pageopacity="0.0"
     inkscape:pagecheckerboard="0"
     inkscape:deskcolor="#d1d1d1" />
  <g
     id="g8"
     inkscape:groupmode="layer"
     inkscape:label="UDL4CS Logo-horizontal"
     transform="matrix(1.3333333,0,0,-1.3333333,0,57.956667)">
    <g
       id="g10">
      <g
         id="g12">
        <g
           id="g18">
          <g
             id="g20">
            <path
               d="m 165.083,33.357 h -0.051 -7.76 v -0.004 c -4.259,-0.042 -7.703,-3.493 -7.732,-7.759 v 0 h -0.001 c 0,-0.009 0,-0.017 0,-0.026 v 0 c 0,-0.009 0,-0.018 0,-0.027 v 0 h 0.001 c 0.027,-3.99 3.043,-7.268 6.92,-7.708 v 0 h -6.921 c 0,-4.291 3.456,-7.77 7.733,-7.812 v 0 -0.004 h 7.811 v 0.003 c 4.272,0.028 7.728,3.485 7.757,7.759 v 0 h 0.003 c 0,0.009 -10e-4,0.018 -10e-4,0.027 v 0 c 0,0.009 10e-4,0.018 10e-4,0.027 v 0 h -0.003 c -0.027,3.993 -3.045,7.272 -6.926,7.708 v 0 h 5.811 c 0.618,0 1.118,0.501 1.118,1.12 v 0 c 0,3.698 -2.996,6.696 -6.692,6.696 v 0 z m -25.699,0 h -0.077 -7.734 v -0.004 c -4.264,-0.042 -7.71,-3.499 -7.731,-7.77 v 0 h -0.003 v -7.817 h 0.004 c 0.035,-4.259 3.475,-7.703 7.73,-7.745 v 0 -0.004 h 7.734 0.077 0.921 c 3.762,0 6.813,3.052 6.813,6.818 v 0 c 0,0.551 -0.446,0.998 -0.997,0.998 v 0 h -6.737 -0.077 -7.657 v 7.708 h 7.657 0.077 6.616 c 0.618,0 1.118,0.501 1.118,1.12 v 0 c 0,3.698 -2.996,6.696 -6.692,6.696 v 0 z m -79.704,0 h -7.656 -0.078 -6.377 c -0.749,0 -1.357,-0.608 -1.357,-1.358 v 0 -6.416 -0.042 -7.708 -0.067 -6.431 c 0,-0.728 0.591,-1.318 1.318,-1.318 v 0 h 6.416 0.078 7.656 0.078 v 0.004 c 4.255,0.042 7.694,3.486 7.73,7.745 v 0 h 0.004 v 7.817 H 67.49 c -0.022,4.271 -3.468,7.728 -7.732,7.77 v 0 0.004 z m -7.656,-7.816 h 7.656 v -7.708 h -7.656 z m 19.239,7.792 c -0.746,0 -1.351,-0.605 -1.351,-1.351 v 0 -6.387 -0.077 -7.661 -0.078 -6.381 c 0,-0.75 0.608,-1.358 1.356,-1.358 v 0 h 6.415 0.04 7.704 0.067 6.427 c 0.728,0 1.318,0.591 1.318,1.32 v 0 5.144 c 0,0.747 -0.606,1.353 -1.352,1.353 v 0 h -6.393 -0.067 -7.704 v 7.661 0.077 6.791 c 0,0.523 -0.424,0.947 -0.947,0.947 v 0 z m -36.284,0 c -0.551,0 -0.998,-0.447 -0.998,-0.998 v 0 -6.74 -0.077 -7.661 h -7.704 v 7.661 0.077 6.619 c 0,0.618 -0.501,1.119 -1.118,1.119 v 0 H 21.06 v -2.39 h 2.623 V 28.319 H 21.06 v 2.609 h -2.595 v -5.231 h 2.595 v -2.624 h -2.595 v -5.246 h 2.595 v 2.623 h 2.623 V 17.827 H 21.06 v -2.623 h 2.623 V 12.58 h 2.623 v 2.624 H 28.93 V 12.58 h -2.624 v -2.54 h 7.742 v 0.004 c 4.257,0.036 7.699,3.477 7.741,7.735 v 0 h 0.003 v 7.739 0.077 6.575 c 0,0.642 -0.52,1.163 -1.162,1.163 v 0 z m 76.21,-0.05 v -0.03 h -7.775 l -7.756,-7.776 v -6.453 c 0,-0.749 0.608,-1.357 1.358,-1.357 v 0 h 6.41 0.044 7.719 v -6.356 c 0,-0.75 0.606,-1.357 1.355,-1.357 v 0 h 5.383 c 0.592,0 1.073,0.481 1.073,1.073 v 0 6.64 0.103 7.697 0.016 6.779 c 0,0.564 -0.457,1.021 -1.021,1.021 v 0 z m 0.017,-4.042 v -7.657 h -7.657 z M 18.941,15.204 c 0.792,-2.198 2.538,-3.933 4.742,-4.711 v 0 2.087 H 21.06 v 2.624 z"
               style="fill:url(#linearGradient30);stroke:none"
               id="path32" />
          </g>
        </g>
      </g>
    </g>
    <g
       id="g34">
      <g
         id="g36"
         clip-path="url(#clipPath40)">
        <path
           d="M 10.603,28.33 H 7.98 v -2.623 h 2.623 z m 0,-5.257 h 2.623 v 2.623 H 10.603 Z M 15.842,9.957 h 2.623 v 2.623 h -2.623 z m 0,23.595 V 30.943 30.928 28.32 h 2.624 v 2.608 0.015 2.609 z m 0,-18.348 h 2.623 v 2.623 h -2.623 z m -5.239,-0.022 h 2.623 v 2.623 h -2.623 z m 2.616,2.645 h 2.623 v 2.623 h -2.623 z m 2.623,7.88 h 2.623 v -2.623 h -2.623 z"
           style="fill:#cc2952;fill-opacity:1;fill-rule:nonzero;stroke:none"
           id="path42" />
      </g>
    </g>
    <g
       id="g44">
      <g
         id="g46"
         clip-path="url(#clipPath50)">
        <path
           d="M 19.25,7.863 H 7.189 V 35.018 H 19.25 Z"
           style="fill:#cc2952;fill-opacity:1;fill-rule:nonzero;stroke:none"
           id="path52" />
      </g>
    </g>
    <g
       id="g54">
      <g
         id="g56"
         clip-path="url(#clipPath60)">
        <g
           id="g62"
           transform="translate(188.7912,28.2807)">
          <path
             d="m 0,0 c 0,-2.205 -1.035,-3.319 -3.071,-3.319 -2.025,0 -3.06,1.114 -3.06,3.33 v 3.634 h 1.575 V 0.011 c 0,-1.271 0.518,-1.901 1.485,-1.901 0.99,0 1.508,0.63 1.508,1.901 V 3.645 H 0 Z"
             style="fill:#0b1a73;fill-opacity:1;fill-rule:nonzero;stroke:none"
             id="path64" />
        </g>
        <g
           id="g66"
           transform="translate(195.9535,25.0631)">
          <path
             d="M 0,0 -3.229,4.275 V 0 h -1.563 v 6.862 h 1.418 l 3.239,-4.32 v 4.32 H 1.428 L 1.428,0 Z"
             style="fill:#0b1a73;fill-opacity:1;fill-rule:nonzero;stroke:none"
             id="path68" />
        </g>
        <path
           d="m 200.013,31.925 h 1.563 v -6.862 h -1.563 z"
           style="fill:#0b1a73;fill-opacity:1;fill-rule:nonzero;stroke:none"
           id="path70" />
        <g
           id="g72"
           transform="translate(206.0979,25.0631)">
          <path
             d="m 0,0 -2.688,6.862 h 1.743 L 0.652,2.329 C 0.731,2.081 0.809,1.822 0.877,1.575 0.944,1.822 1.023,2.081 1.102,2.329 L 2.778,6.862 H 4.443 L 1.755,0 Z"
             style="fill:#0b1a73;fill-opacity:1;fill-rule:nonzero;stroke:none"
             id="path74" />
        </g>
        <g
           id="g76"
           transform="translate(212.3605,25.0631)">
          <path
             d="M 0,0 V 6.862 H 4.915 V 5.433 H 1.563 V 4.084 h 2.88 V 2.711 H 1.563 V 1.406 H 5.006 V 0 Z"
             style="fill:#0b1a73;fill-opacity:1;fill-rule:nonzero;stroke:none"
             id="path78" />
        </g>
        <g
           id="g80"
           transform="translate(222.324,28.3365)">
          <path
             d="M 0,0 C 0.889,0 1.384,0.394 1.384,1.092 1.384,1.8 0.889,2.216 0,2.216 H -1.192 V 0 Z M 3.14,-3.273 H 1.463 l -1.496,1.991 h -1.159 v -1.991 h -1.563 v 6.862 h 2.733 c 1.901,0 2.958,-0.9 2.958,-2.497 0,-1.036 -0.516,-1.767 -1.417,-2.127 L 3.14,-3.149 Z"
             style="fill:#0b1a73;fill-opacity:1;fill-rule:nonzero;stroke:none"
             id="path82" />
        </g>
        <g
           id="g84"
           transform="translate(231.8847,30.2493)">
          <path
             d="m 0,0 c -0.99,0.382 -1.587,0.506 -2.228,0.506 -0.495,0 -0.855,-0.247 -0.855,-0.585 0,-0.472 0.371,-0.596 1.766,-1.057 1.328,-0.45 1.902,-0.934 1.902,-2.104 0,-1.283 -0.946,-2.047 -2.42,-2.047 -0.91,0 -2.249,0.36 -3.16,0.911 l 0.585,1.215 c 1.002,-0.529 1.823,-0.765 2.497,-0.765 0.506,0 0.81,0.213 0.81,0.596 0,0.439 -0.248,0.596 -1.609,1.001 -1.249,0.372 -1.979,0.968 -1.979,2.126 0,1.148 0.843,1.992 2.34,1.992 0.821,0 1.71,-0.135 2.811,-0.619 z"
             style="fill:#0b1a73;fill-opacity:1;fill-rule:nonzero;stroke:none"
             id="path86" />
        </g>
        <g
           id="g88"
           transform="translate(237.9218,29.9791)">
          <path
             d="M 0,0 C -0.101,0.281 -0.169,0.506 -0.214,0.698 -0.27,0.506 -0.338,0.281 -0.439,0 L -1.26,-2.216 h 2.092 z m -2.25,-4.916 h -1.688 l 2.666,6.862 H 0.855 L 3.51,-4.916 H 1.833 L 1.35,-3.645 h -3.128 z"
             style="fill:#0b1a73;fill-opacity:1;fill-rule:nonzero;stroke:none"
             id="path90" />
        </g>
        <g
           id="g92"
           transform="translate(243.3082,25.0631)">
          <path
             d="M 0,0 V 6.862 H 1.563 V 1.44 H 4.725 V 0 Z"
             style="fill:#0b1a73;fill-opacity:1;fill-rule:nonzero;stroke:none"
             id="path94" />
        </g>
        <g
           id="g96"
           transform="translate(256.0259,26.4579)">
          <path
             d="M 0,0 C 1.485,0 2.261,0.687 2.261,2.048 2.261,3.398 1.519,4.073 0,4.073 H -0.776 V 0 Z m 0,5.467 c 2.452,0 3.858,-1.316 3.858,-3.419 0,-2.116 -1.44,-3.443 -3.858,-3.443 h -2.34 v 6.862 z"
             style="fill:#0b1a73;fill-opacity:1;fill-rule:nonzero;stroke:none"
             id="path98" />
        </g>
        <g
           id="g100"
           transform="translate(261.9867,25.0631)">
          <path
             d="M 0,0 V 6.862 H 4.915 V 5.433 H 1.563 V 4.084 h 2.88 V 2.711 H 1.563 V 1.406 H 5.006 V 0 Z"
             style="fill:#0b1a73;fill-opacity:1;fill-rule:nonzero;stroke:none"
             id="path102" />
        </g>
        <g
           id="g104"
           transform="translate(273.7719,30.2493)">
          <path
             d="m 0,0 c -0.99,0.382 -1.587,0.506 -2.228,0.506 -0.495,0 -0.855,-0.247 -0.855,-0.585 0,-0.472 0.371,-0.596 1.766,-1.057 1.328,-0.45 1.902,-0.934 1.902,-2.104 0,-1.283 -0.946,-2.047 -2.42,-2.047 -0.91,0 -2.249,0.36 -3.16,0.911 l 0.585,1.215 c 1.002,-0.529 1.823,-0.765 2.497,-0.765 0.506,0 0.81,0.213 0.81,0.596 0,0.439 -0.248,0.596 -1.609,1.001 -1.249,0.372 -1.979,0.968 -1.979,2.126 0,1.148 0.843,1.992 2.34,1.992 0.821,0 1.71,-0.135 2.811,-0.619 z"
             style="fill:#0b1a73;fill-opacity:1;fill-rule:nonzero;stroke:none"
             id="path106" />
        </g>
        <path
           d="m 276.583,31.925 h 1.563 v -6.862 h -1.563 z"
           style="fill:#0b1a73;fill-opacity:1;fill-rule:nonzero;stroke:none"
           id="path108" />
        <g
           id="g110"
           transform="translate(286.8515,25.8395)">
          <path
             d="m 0,0 c -1.17,-0.619 -2.148,-0.877 -3.285,-0.877 -2.025,0 -3.296,1.259 -3.296,3.52 0,2.149 1.317,3.556 3.386,3.556 0.866,0 1.969,-0.192 2.88,-0.585 L -0.72,4.421 c -0.821,0.248 -1.541,0.394 -2.34,0.394 -1.192,0 -1.924,-0.844 -1.924,-2.172 0,-1.383 0.664,-2.114 1.767,-2.114 0.641,0 1.214,0.056 1.833,0.348 V 1.744 H -3.33 V 3.015 H 0 Z"
             style="fill:#0b1a73;fill-opacity:1;fill-rule:nonzero;stroke:none"
             id="path112" />
        </g>
        <g
           id="g114"
           transform="translate(293.9586,25.0631)">
          <path
             d="M 0,0 -3.229,4.275 V 0 h -1.563 v 6.862 h 1.418 l 3.239,-4.32 v 4.32 H 1.428 L 1.428,0 Z"
             style="fill:#0b1a73;fill-opacity:1;fill-rule:nonzero;stroke:none"
             id="path116" />
        </g>
        <g
           id="g118"
           transform="translate(305.8448,28.8434)">
          <path
             d="M 0,0 V -1.373 H -2.813 V -3.78 H -4.376 V 3.082 H 0.45 V 1.653 h -3.263 l 0,-1.653 z"
             style="fill:#0b1a73;fill-opacity:1;fill-rule:nonzero;stroke:none"
             id="path120" />
        </g>
        <g
           id="g122"
           transform="translate(313.2103,28.4828)">
          <path
             d="m 0,0 c 0,1.418 -0.664,2.138 -1.811,2.138 -1.148,0 -1.811,-0.72 -1.811,-2.138 0,-1.384 0.663,-2.104 1.811,-2.104 C -0.664,-2.104 0,-1.384 0,0 m 1.597,0 c 0,-2.25 -1.282,-3.521 -3.408,-3.521 -2.138,0 -3.409,1.271 -3.409,3.521 0,2.284 1.271,3.555 3.409,3.555 2.126,0 3.408,-1.271 3.408,-3.555"
             style="fill:#0b1a73;fill-opacity:1;fill-rule:nonzero;stroke:none"
             id="path124" />
        </g>
        <g
           id="g126"
           transform="translate(319.6643,28.3365)">
          <path
             d="M 0,0 C 0.889,0 1.384,0.394 1.384,1.092 1.384,1.8 0.889,2.216 0,2.216 H -1.192 V 0 Z M 3.139,-3.273 H 1.463 l -1.496,1.991 h -1.159 v -1.991 h -1.563 v 6.862 h 2.733 c 1.901,0 2.958,-0.9 2.958,-2.497 0,-1.036 -0.516,-1.767 -1.417,-2.127 l 1.62,-2.114 z"
             style="fill:#0b1a73;fill-opacity:1;fill-rule:nonzero;stroke:none"
             id="path128" />
        </g>
        <g
           id="g130"
           transform="translate(328.2889,25.0631)">
          <path
             d="M 0,0 V 6.862 H 1.563 V 1.44 H 4.725 V 0 Z"
             style="fill:#0b1a73;fill-opacity:1;fill-rule:nonzero;stroke:none"
             id="path132" />
        </g>
        <g
           id="g134"
           transform="translate(335.0589,25.0631)">
          <path
             d="M 0,0 V 6.862 H 4.915 V 5.433 H 1.563 V 4.084 h 2.88 V 2.711 H 1.563 V 1.406 H 5.006 V 0 Z"
             style="fill:#0b1a73;fill-opacity:1;fill-rule:nonzero;stroke:none"
             id="path136" />
        </g>
        <g
           id="g138"
           transform="translate(345.7987,29.9791)">
          <path
             d="M 0,0 C -0.102,0.281 -0.169,0.506 -0.214,0.698 -0.27,0.506 -0.338,0.281 -0.439,0 L -1.26,-2.216 h 2.092 z m -2.25,-4.916 h -1.688 l 2.666,6.862 H 0.855 L 3.51,-4.916 H 1.833 L 1.35,-3.645 h -3.128 z"
             style="fill:#0b1a73;fill-opacity:1;fill-rule:nonzero;stroke:none"
             id="path140" />
        </g>
        <g
           id="g142"
           transform="translate(353.9394,28.3365)">
          <path
             d="M 0,0 C 0.889,0 1.384,0.394 1.384,1.092 1.384,1.8 0.889,2.216 0,2.216 H -1.192 V 0 Z M 3.139,-3.273 H 1.463 l -1.496,1.991 h -1.159 v -1.991 h -1.563 v 6.862 h 2.733 c 1.901,0 2.958,-0.9 2.958,-2.497 0,-1.036 -0.516,-1.767 -1.417,-2.127 l 1.62,-2.114 z"
             style="fill:#0b1a73;fill-opacity:1;fill-rule:nonzero;stroke:none"
             id="path144" />
        </g>
        <g
           id="g146"
           transform="translate(363.8019,25.0631)">
          <path
             d="M 0,0 -3.229,4.275 V 0 h -1.563 v 6.862 h 1.418 l 3.239,-4.32 v 4.32 H 1.428 L 1.428,0 Z"
             style="fill:#0b1a73;fill-opacity:1;fill-rule:nonzero;stroke:none"
             id="path148" />
        </g>
        <path
           d="m 367.86,31.925 h 1.563 v -6.862 h -1.563 z"
           style="fill:#0b1a73;fill-opacity:1;fill-rule:nonzero;stroke:none"
           id="path150" />
        <g
           id="g152"
           transform="translate(376.8474,25.0631)">
          <path
             d="M 0,0 -3.229,4.275 V 0 h -1.563 v 6.862 h 1.418 l 3.239,-4.32 v 4.32 H 1.428 L 1.428,0 Z"
             style="fill:#0b1a73;fill-opacity:1;fill-rule:nonzero;stroke:none"
             id="path154" />
        </g>
        <g
           id="g156"
           transform="translate(386.9801,25.8395)">
          <path
             d="m 0,0 c -1.17,-0.619 -2.148,-0.877 -3.285,-0.877 -2.025,0 -3.296,1.259 -3.296,3.52 0,2.149 1.317,3.556 3.386,3.556 0.866,0 1.969,-0.192 2.88,-0.585 L -0.72,4.421 c -0.821,0.248 -1.541,0.394 -2.34,0.394 -1.192,0 -1.924,-0.844 -1.924,-2.172 0,-1.383 0.664,-2.114 1.767,-2.114 0.641,0 1.214,0.056 1.833,0.348 V 1.744 H -3.33 V 3.015 H 0 Z"
             style="fill:#0b1a73;fill-opacity:1;fill-rule:nonzero;stroke:none"
             id="path158" />
        </g>
        <g
           id="g160"
           transform="translate(187.0365,15.348)">
          <path
             d="M 0,0 V -1.372 H -2.813 V -3.78 H -4.376 V 3.083 H 0.45 V 1.654 h -3.263 l 0,-1.654 z"
             style="fill:#0b1a73;fill-opacity:1;fill-rule:nonzero;stroke:none"
             id="path162" />
        </g>
        <g
           id="g164"
           transform="translate(194.4019,14.9886)">
          <path
             d="m 0,0 c 0,1.417 -0.664,2.137 -1.811,2.137 -1.148,0 -1.811,-0.72 -1.811,-2.137 0,-1.384 0.663,-2.104 1.811,-2.104 C -0.664,-2.104 0,-1.384 0,0 m 1.597,0 c 0,-2.25 -1.282,-3.521 -3.408,-3.521 -2.138,0 -3.409,1.271 -3.409,3.521 0,2.283 1.271,3.555 3.409,3.555 2.126,0 3.408,-1.272 3.408,-3.555"
             style="fill:#0b1a73;fill-opacity:1;fill-rule:nonzero;stroke:none"
             id="path166" />
        </g>
        <g
           id="g168"
           transform="translate(200.8571,14.8418)">
          <path
             d="M 0,0 C 0.889,0 1.384,0.394 1.384,1.092 1.384,1.8 0.889,2.216 0,2.216 H -1.192 V 0 Z M 3.14,-3.273 H 1.463 l -1.496,1.991 h -1.159 v -1.991 h -1.563 v 6.862 h 2.733 c 1.901,0 2.958,-0.9 2.958,-2.497 0,-1.036 -0.516,-1.767 -1.417,-2.127 L 3.14,-3.15 Z"
             style="fill:#0b1a73;fill-opacity:1;fill-rule:nonzero;stroke:none"
             id="path170" />
        </g>
        <g
           id="g172"
           transform="translate(215.3767,12.266)">
          <path
             d="m 0,0 c -0.911,-0.551 -1.801,-0.799 -2.88,-0.799 -2.071,0 -3.341,1.26 -3.341,3.522 0,2.272 1.27,3.554 3.453,3.554 0.855,0 1.766,-0.213 2.52,-0.608 L -0.72,4.488 C -1.496,4.736 -2.115,4.86 -2.7,4.86 c -1.261,0 -1.936,-0.72 -1.936,-2.137 0.012,-1.283 0.71,-2.105 1.823,-2.105 0.833,0 1.44,0.158 2.284,0.563 z"
             style="fill:#0b1a73;fill-opacity:1;fill-rule:nonzero;stroke:none"
             id="path174" />
        </g>
        <g
           id="g176"
           transform="translate(222.1561,14.9886)">
          <path
             d="m 0,0 c 0,1.417 -0.664,2.137 -1.811,2.137 -1.148,0 -1.811,-0.72 -1.811,-2.137 0,-1.384 0.663,-2.104 1.811,-2.104 C -0.664,-2.104 0,-1.384 0,0 m 1.597,0 c 0,-2.25 -1.282,-3.521 -3.408,-3.521 -2.138,0 -3.409,1.271 -3.409,3.521 0,2.283 1.271,3.555 3.409,3.555 2.126,0 3.408,-1.272 3.408,-3.555"
             style="fill:#0b1a73;fill-opacity:1;fill-rule:nonzero;stroke:none"
             id="path178" />
        </g>
        <g
           id="g180"
           transform="translate(232.0984,15.5171)">
          <path
             d="m 0,0 v 0.338 l -1.801,-4.287 h -1 L -4.579,0.338 V 0.033 l -0.124,-3.982 h -1.575 l 0.259,6.862 h 1.788 l 1.767,-4.139 c 0.079,-0.18 0.135,-0.36 0.169,-0.484 0.033,0.124 0.089,0.304 0.157,0.484 l 1.767,4.139 H 1.416 L 1.687,-3.949 H 0.101 Z"
             style="fill:#0b1a73;fill-opacity:1;fill-rule:nonzero;stroke:none"
             id="path182" />
        </g>
        <g
           id="g184"
           transform="translate(239.0458,14.628)">
          <path
             d="m 0,0 c 0.877,0 1.373,0.439 1.361,1.204 0,0.787 -0.517,1.226 -1.428,1.226 H -1.113 V 0 Z m -0.056,3.803 c 1.891,0 2.948,-0.934 2.948,-2.599 0,-1.631 -1.047,-2.554 -2.88,-2.554 h -1.125 v -1.71 h -1.564 v 6.863 z"
             style="fill:#0b1a73;fill-opacity:1;fill-rule:nonzero;stroke:none"
             id="path186" />
        </g>
        <g
           id="g188"
           transform="translate(250.0699,14.786)">
          <path
             d="m 0,0 c 0,-2.205 -1.035,-3.319 -3.071,-3.319 -2.025,0 -3.06,1.114 -3.06,3.33 v 3.634 h 1.575 V 0.011 c 0,-1.271 0.518,-1.901 1.485,-1.901 0.99,0 1.508,0.63 1.508,1.901 V 3.645 H 0 Z"
             style="fill:#0b1a73;fill-opacity:1;fill-rule:nonzero;stroke:none"
             id="path190" />
        </g>
        <g
           id="g192"
           transform="translate(255.5785,17.0017)">
          <path
             d="M 0,0 V -5.433 H -1.563 V 0 H -3.768 V 1.429 H 2.216 V 0 Z"
             style="fill:#0b1a73;fill-opacity:1;fill-rule:nonzero;stroke:none"
             id="path194" />
        </g>
        <g
           id="g196"
           transform="translate(259.6482,11.5684)">
          <path
             d="M 0,0 V 6.862 H 4.915 V 5.433 H 1.563 V 4.084 h 2.88 V 2.711 H 1.563 V 1.406 H 5.006 V 0 Z"
             style="fill:#0b1a73;fill-opacity:1;fill-rule:nonzero;stroke:none"
             id="path198" />
        </g>
        <g
           id="g200"
           transform="translate(269.6117,14.8418)">
          <path
             d="M 0,0 C 0.889,0 1.384,0.394 1.384,1.092 1.384,1.8 0.889,2.216 0,2.216 H -1.192 V 0 Z M 3.14,-3.273 H 1.463 l -1.496,1.991 h -1.159 v -1.991 h -1.563 v 6.862 h 2.733 c 1.901,0 2.958,-0.9 2.958,-2.497 0,-1.036 -0.516,-1.767 -1.417,-2.127 L 3.14,-3.15 Z"
             style="fill:#0b1a73;fill-opacity:1;fill-rule:nonzero;stroke:none"
             id="path202" />
        </g>
        <g
           id="g204"
           transform="translate(282.77,16.7545)">
          <path
             d="m 0,0 c -0.99,0.382 -1.587,0.506 -2.228,0.506 -0.495,0 -0.855,-0.247 -0.855,-0.585 0,-0.472 0.371,-0.596 1.766,-1.057 1.328,-0.45 1.902,-0.934 1.902,-2.104 0,-1.283 -0.946,-2.047 -2.42,-2.047 -0.91,0 -2.249,0.36 -3.16,0.911 l 0.585,1.215 c 1.002,-0.529 1.823,-0.765 2.497,-0.765 0.506,0 0.81,0.213 0.81,0.596 0,0.439 -0.248,0.596 -1.609,1.001 -1.249,0.372 -1.979,0.968 -1.979,2.126 0,1.148 0.843,1.992 2.34,1.992 0.821,0 1.71,-0.135 2.811,-0.619 z"
             style="fill:#0b1a73;fill-opacity:1;fill-rule:nonzero;stroke:none"
             id="path206" />
        </g>
        <g
           id="g208"
           transform="translate(291.5414,12.266)">
          <path
             d="m 0,0 c -0.911,-0.551 -1.801,-0.799 -2.88,-0.799 -2.071,0 -3.341,1.26 -3.341,3.522 0,2.272 1.27,3.554 3.453,3.554 0.855,0 1.766,-0.213 2.52,-0.608 L -0.72,4.488 C -1.496,4.736 -2.115,4.86 -2.7,4.86 c -1.261,0 -1.936,-0.72 -1.936,-2.137 0.012,-1.283 0.71,-2.105 1.823,-2.105 0.833,0 1.44,0.158 2.283,0.563 z"
             style="fill:#0b1a73;fill-opacity:1;fill-rule:nonzero;stroke:none"
             id="path210" />
        </g>
        <path
           d="m 293.53,18.431 h 1.563 v -6.862 h -1.563 z"
           style="fill:#0b1a73;fill-opacity:1;fill-rule:nonzero;stroke:none"
           id="path212" />
        <g
           id="g214"
           transform="translate(297.7241,11.5684)">
          <path
             d="M 0,0 V 6.862 H 4.915 V 5.433 H 1.563 V 4.084 h 2.88 V 2.711 H 1.563 V 1.406 H 5.006 V 0 Z"
             style="fill:#0b1a73;fill-opacity:1;fill-rule:nonzero;stroke:none"
             id="path216" />
        </g>
        <g
           id="g218"
           transform="translate(309.7242,11.5684)">
          <path
             d="M 0,0 -3.229,4.275 V 0 h -1.563 v 6.862 h 1.418 l 3.239,-4.32 v 4.32 H 1.428 L 1.428,0 Z"
             style="fill:#0b1a73;fill-opacity:1;fill-rule:nonzero;stroke:none"
             id="path220" />
        </g>
        <g
           id="g222"
           transform="translate(319.4987,12.266)">
          <path
             d="m 0,0 c -0.911,-0.551 -1.801,-0.799 -2.88,-0.799 -2.071,0 -3.341,1.26 -3.341,3.522 0,2.272 1.27,3.554 3.453,3.554 0.855,0 1.766,-0.213 2.52,-0.608 L -0.72,4.488 C -1.496,4.736 -2.115,4.86 -2.7,4.86 c -1.261,0 -1.936,-0.72 -1.936,-2.137 0.012,-1.283 0.71,-2.105 1.823,-2.105 0.833,0 1.44,0.158 2.284,0.563 z"
             style="fill:#0b1a73;fill-opacity:1;fill-rule:nonzero;stroke:none"
             id="path224" />
        </g>
        <g
           id="g226"
           transform="translate(321.486,11.5684)">
          <path
             d="M 0,0 V 6.862 H 4.915 V 5.433 H 1.563 V 4.084 h 2.88 V 2.711 H 1.563 V 1.406 H 5.006 V 0 Z"
             style="fill:#0b1a73;fill-opacity:1;fill-rule:nonzero;stroke:none"
             id="path228" />
        </g>
      </g>
    </g>
  </g>
</svg>
